<?xml version="1.0" encoding="UTF-8" standalone="no"?>
<svg
   xmlns:dc="http://purl.org/dc/elements/1.1/"
   xmlns:cc="http://creativecommons.org/ns#"
   xmlns:rdf="http://www.w3.org/1999/02/22-rdf-syntax-ns#"
   xmlns:svg="http://www.w3.org/2000/svg"
   xmlns="http://www.w3.org/2000/svg"
   viewBox="0 0 1333.3333 1333.3333"
   height="1333.3333"
   width="1333.3333"
   xml:space="preserve"
   id="svg2"
   version="1.1"><metadata
     id="metadata8"><rdf:RDF><cc:Work
         rdf:about=""><dc:format>image/svg+xml</dc:format><dc:type
           rdf:resource="http://purl.org/dc/dcmitype/StillImage" /></cc:Work></rdf:RDF></metadata><defs
     id="defs6"><clipPath
       id="clipPath18"
       clipPathUnits="userSpaceOnUse"><path
         id="path16"
         d="M 0,0 H 1000 V 1000 H 0 Z" /></clipPath></defs><g
     transform="matrix(1.3333333,0,0,-1.3333333,0,1333.3333)"
     id="g10"><g
       id="g12"><g
         clip-path="url(#clipPath18)"
         id="g14"><g
           transform="translate(42.7998,948.2002)"
           id="g20"><path
             id="path22"
             style="fill:#000000;fill-opacity:1;fill-rule:nonzero;stroke:none"
             d="M 0,0 C -1.2,1.2 -1.2,2.4 0,3.6 L 5.4,9 C 6.6,10.2 7.8,10.2 9,9 L 14.4,3.6 C 15.6,2.4 15.6,1.2 14.4,0 L 9,-5.4 c -1.2,-1.2 -2.4,-1.2 -3.6,0 z" /></g><g
           transform="translate(39.9199,847.48)"
           id="g24"><path
             id="path26"
             style="fill:#000000;fill-opacity:1;fill-rule:nonzero;stroke:none"
             d="m 0,0 c -1.68,1.68 -1.68,3.36 0,5.04 l 7.56,7.56 c 1.68,1.68 3.36,1.68 5.04,0 L 20.16,5.04 C 21.84,3.36 21.84,1.68 20.16,0 L 12.6,-7.56 c -1.68,-1.68 -3.36,-1.68 -5.04,0 z" /></g><g
           transform="translate(37.04,746.7598)"
           id="g28"><path
             id="path30"
             style="fill:#000000;fill-opacity:1;fill-rule:nonzero;stroke:none"
             d="m 0,0 c -2.16,2.16 -2.16,4.32 0,6.48 l 9.72,9.72 c 2.16,2.16 4.32,2.16 6.48,0 L 25.92,6.48 C 28.08,4.32 28.08,2.16 25.92,0 L 16.2,-9.72 c -2.16,-2.16 -4.32,-2.16 -6.48,0 z" /></g><g
           transform="translate(34.1602,646.04)"
           id="g32"><path
             id="path34"
             style="fill:#000000;fill-opacity:1;fill-rule:nonzero;stroke:none"
             d="M 0,0 C -2.64,2.64 -2.64,5.28 0,7.92 L 11.88,19.8 c 2.64,2.64 5.28,2.64 7.92,0 L 31.68,7.92 C 34.32,5.28 34.32,2.64 31.68,0 L 19.8,-11.88 c -2.64,-2.64 -5.28,-2.64 -7.92,0 z" /></g><g
           transform="translate(31.2798,545.3203)"
           id="g36"><path
             id="path38"
             style="fill:#000000;fill-opacity:1;fill-rule:nonzero;stroke:none"
             d="m 0,0 c -3.12,3.12 -3.12,6.239 0,9.359 l 14.04,14.04 c 3.12,3.121 6.24,3.121 9.36,0 L 37.44,9.359 C 40.56,6.239 40.56,3.12 37.44,0 L 23.4,-14.04 c -3.12,-3.12 -6.24,-3.12 -9.36,0 z" /></g><g
           transform="translate(28.3999,444.5996)"
           id="g40"><path
             id="path42"
             style="fill:#000000;fill-opacity:1;fill-rule:nonzero;stroke:none"
             d="M 0,0 C -3.6,3.601 -3.6,7.2 0,10.801 L 16.2,27 c 3.6,3.601 7.2,3.601 10.8,0 L 43.2,10.801 C 46.8,7.2 46.8,3.601 43.2,0 L 27,-16.199 c -3.6,-3.601 -7.2,-3.601 -10.8,0 z" /></g><g
           transform="translate(25.52,343.8799)"
           id="g44"><path
             id="path46"
             style="fill:#000000;fill-opacity:1;fill-rule:nonzero;stroke:none"
             d="m 0,0 c -4.08,4.08 -4.08,8.16 0,12.24 l 18.36,18.361 c 4.08,4.079 8.16,4.079 12.24,0 L 48.96,12.24 C 53.04,8.16 53.04,4.08 48.96,0 L 30.6,-18.36 c -4.08,-4.079 -8.16,-4.079 -12.24,0 z" /></g><g
           transform="translate(22.6401,243.1602)"
           id="g48"><path
             id="path50"
             style="fill:#000000;fill-opacity:1;fill-rule:nonzero;stroke:none"
             d="M 0,0 C -4.56,4.56 -4.56,9.12 0,13.68 L 20.52,34.2 c 4.56,4.56 9.12,4.56 13.68,0 L 54.72,13.68 C 59.28,9.12 59.28,4.56 54.72,0 L 34.2,-20.521 c -4.56,-4.559 -9.12,-4.559 -13.68,0 z" /></g><g
           transform="translate(19.7598,142.4404)"
           id="g52"><path
             id="path54"
             style="fill:#000000;fill-opacity:1;fill-rule:nonzero;stroke:none"
             d="M 0,0 C -5.04,5.04 -5.04,10.079 0,15.119 L 22.68,37.8 c 5.04,5.04 10.08,5.04 15.12,0 L 60.48,15.119 C 65.52,10.079 65.52,5.04 60.48,0 L 37.8,-22.681 c -5.04,-5.04 -10.08,-5.04 -15.12,0 z" /></g><g
           transform="translate(16.8799,41.7197)"
           id="g56"><path
             id="path58"
             style="fill:#000000;fill-opacity:1;fill-rule:nonzero;stroke:none"
             d="M 0,0 C -5.52,5.521 -5.52,11.04 0,16.561 L 24.84,41.4 c 5.52,5.52 11.04,5.52 16.56,0 L 66.24,16.561 C 71.76,11.04 71.76,5.521 66.24,0 L 41.4,-24.84 c -5.52,-5.519 -11.04,-5.519 -16.56,0 z" /></g><g
           transform="translate(142.7998,948.2002)"
           id="g60"><path
             id="path62"
             style="fill:#000000;fill-opacity:1;fill-rule:nonzero;stroke:none"
             d="M 0,0 C -1.2,1.2 -1.2,2.4 0,3.6 L 5.4,9 C 6.6,10.2 7.8,10.2 9,9 L 14.4,3.6 C 15.6,2.4 15.6,1.2 14.4,0 L 9,-5.4 c -1.2,-1.2 -2.4,-1.2 -3.6,0 z" /></g><g
           transform="translate(139.9199,847.48)"
           id="g64"><path
             id="path66"
             style="fill:#000000;fill-opacity:1;fill-rule:nonzero;stroke:none"
             d="m 0,0 c -1.68,1.68 -1.68,3.36 0,5.04 l 7.56,7.56 c 1.68,1.68 3.36,1.68 5.04,0 L 20.16,5.04 C 21.84,3.36 21.84,1.68 20.16,0 L 12.6,-7.56 c -1.68,-1.68 -3.36,-1.68 -5.04,0 z" /></g><g
           transform="translate(137.04,746.7598)"
           id="g68"><path
             id="path70"
             style="fill:#000000;fill-opacity:1;fill-rule:nonzero;stroke:none"
             d="m 0,0 c -2.16,2.16 -2.16,4.32 0,6.48 l 9.72,9.72 c 2.16,2.16 4.32,2.16 6.48,0 L 25.92,6.48 C 28.08,4.32 28.08,2.16 25.92,0 L 16.2,-9.72 c -2.16,-2.16 -4.32,-2.16 -6.48,0 z" /></g><g
           transform="translate(134.1602,646.04)"
           id="g72"><path
             id="path74"
             style="fill:#000000;fill-opacity:1;fill-rule:nonzero;stroke:none"
             d="M 0,0 C -2.64,2.64 -2.64,5.28 0,7.92 L 11.88,19.8 c 2.64,2.64 5.28,2.64 7.92,0 L 31.68,7.92 C 34.32,5.28 34.32,2.64 31.68,0 L 19.8,-11.88 c -2.64,-2.64 -5.28,-2.64 -7.92,0 z" /></g><g
           transform="translate(131.2798,545.3203)"
           id="g76"><path
             id="path78"
             style="fill:#000000;fill-opacity:1;fill-rule:nonzero;stroke:none"
             d="m 0,0 c -3.12,3.12 -3.12,6.239 0,9.359 l 14.04,14.04 c 3.12,3.121 6.24,3.121 9.36,0 L 37.44,9.359 C 40.56,6.239 40.56,3.12 37.44,0 L 23.4,-14.04 c -3.12,-3.12 -6.24,-3.12 -9.36,0 z" /></g><g
           transform="translate(128.3999,444.5996)"
           id="g80"><path
             id="path82"
             style="fill:#000000;fill-opacity:1;fill-rule:nonzero;stroke:none"
             d="M 0,0 C -3.6,3.601 -3.6,7.2 0,10.801 L 16.2,27 c 3.6,3.601 7.2,3.601 10.8,0 L 43.2,10.801 C 46.8,7.2 46.8,3.601 43.2,0 L 27,-16.199 c -3.6,-3.601 -7.2,-3.601 -10.8,0 z" /></g><g
           transform="translate(125.52,343.8799)"
           id="g84"><path
             id="path86"
             style="fill:#000000;fill-opacity:1;fill-rule:nonzero;stroke:none"
             d="m 0,0 c -4.08,4.08 -4.08,8.16 0,12.24 l 18.36,18.361 c 4.08,4.079 8.16,4.079 12.24,0 L 48.96,12.24 C 53.04,8.16 53.04,4.08 48.96,0 L 30.6,-18.36 c -4.08,-4.079 -8.16,-4.079 -12.24,0 z" /></g><g
           transform="translate(122.6401,243.1602)"
           id="g88"><path
             id="path90"
             style="fill:#000000;fill-opacity:1;fill-rule:nonzero;stroke:none"
             d="M 0,0 C -4.56,4.56 -4.56,9.12 0,13.68 L 20.52,34.2 c 4.56,4.56 9.12,4.56 13.68,0 L 54.72,13.68 C 59.28,9.12 59.28,4.56 54.72,0 L 34.2,-20.521 c -4.56,-4.559 -9.12,-4.559 -13.68,0 z" /></g><g
           transform="translate(119.7598,142.4404)"
           id="g92"><path
             id="path94"
             style="fill:#000000;fill-opacity:1;fill-rule:nonzero;stroke:none"
             d="M 0,0 C -5.04,5.04 -5.04,10.079 0,15.119 L 22.68,37.8 c 5.04,5.04 10.08,5.04 15.12,0 L 60.48,15.119 C 65.52,10.079 65.52,5.04 60.48,0 L 37.8,-22.681 c -5.04,-5.04 -10.08,-5.04 -15.12,0 z" /></g><g
           transform="translate(116.8799,41.7197)"
           id="g96"><path
             id="path98"
             style="fill:#000000;fill-opacity:1;fill-rule:nonzero;stroke:none"
             d="M 0,0 C -5.52,5.521 -5.52,11.04 0,16.561 L 24.84,41.4 c 5.52,5.52 11.04,5.52 16.56,0 L 66.24,16.561 C 71.76,11.04 71.76,5.521 66.24,0 L 41.4,-24.84 c -5.52,-5.519 -11.04,-5.519 -16.56,0 z" /></g><g
           transform="translate(242.7998,948.2002)"
           id="g100"><path
             id="path102"
             style="fill:#000000;fill-opacity:1;fill-rule:nonzero;stroke:none"
             d="M 0,0 C -1.2,1.2 -1.2,2.4 0,3.6 L 5.4,9 C 6.6,10.2 7.8,10.2 9,9 L 14.4,3.6 C 15.6,2.4 15.6,1.2 14.4,0 L 9,-5.4 c -1.2,-1.2 -2.4,-1.2 -3.6,0 z" /></g><g
           transform="translate(239.9199,847.48)"
           id="g104"><path
             id="path106"
             style="fill:#000000;fill-opacity:1;fill-rule:nonzero;stroke:none"
             d="m 0,0 c -1.68,1.68 -1.68,3.36 0,5.04 l 7.56,7.56 c 1.68,1.68 3.36,1.68 5.04,0 L 20.16,5.04 C 21.84,3.36 21.84,1.68 20.16,0 L 12.6,-7.56 c -1.68,-1.68 -3.36,-1.68 -5.04,0 z" /></g><g
           transform="translate(237.04,746.7598)"
           id="g108"><path
             id="path110"
             style="fill:#000000;fill-opacity:1;fill-rule:nonzero;stroke:none"
             d="m 0,0 c -2.16,2.16 -2.16,4.32 0,6.48 l 9.72,9.72 c 2.16,2.16 4.32,2.16 6.48,0 L 25.92,6.48 C 28.08,4.32 28.08,2.16 25.92,0 L 16.2,-9.72 c -2.16,-2.16 -4.32,-2.16 -6.48,0 z" /></g><g
           transform="translate(234.1602,646.04)"
           id="g112"><path
             id="path114"
             style="fill:#000000;fill-opacity:1;fill-rule:nonzero;stroke:none"
             d="M 0,0 C -2.64,2.64 -2.64,5.28 0,7.92 L 11.88,19.8 c 2.64,2.64 5.28,2.64 7.92,0 L 31.68,7.92 C 34.32,5.28 34.32,2.64 31.68,0 L 19.8,-11.88 c -2.64,-2.64 -5.28,-2.64 -7.92,0 z" /></g><g
           transform="translate(231.2798,545.3203)"
           id="g116"><path
             id="path118"
             style="fill:#000000;fill-opacity:1;fill-rule:nonzero;stroke:none"
             d="m 0,0 c -3.12,3.12 -3.12,6.239 0,9.359 l 14.04,14.04 c 3.12,3.121 6.24,3.121 9.36,0 L 37.44,9.359 C 40.56,6.239 40.56,3.12 37.44,0 L 23.4,-14.04 c -3.12,-3.12 -6.24,-3.12 -9.36,0 z" /></g><g
           transform="translate(228.3999,444.5996)"
           id="g120"><path
             id="path122"
             style="fill:#000000;fill-opacity:1;fill-rule:nonzero;stroke:none"
             d="M 0,0 C -3.6,3.601 -3.6,7.2 0,10.801 L 16.2,27 c 3.6,3.601 7.2,3.601 10.8,0 L 43.2,10.801 C 46.8,7.2 46.8,3.601 43.2,0 L 27,-16.199 c -3.6,-3.601 -7.2,-3.601 -10.8,0 z" /></g><g
           transform="translate(225.52,343.8799)"
           id="g124"><path
             id="path126"
             style="fill:#000000;fill-opacity:1;fill-rule:nonzero;stroke:none"
             d="m 0,0 c -4.08,4.08 -4.08,8.16 0,12.24 l 18.36,18.361 c 4.08,4.079 8.16,4.079 12.24,0 L 48.96,12.24 C 53.04,8.16 53.04,4.08 48.96,0 L 30.6,-18.36 c -4.08,-4.079 -8.16,-4.079 -12.24,0 z" /></g><g
           transform="translate(222.6401,243.1602)"
           id="g128"><path
             id="path130"
             style="fill:#000000;fill-opacity:1;fill-rule:nonzero;stroke:none"
             d="M 0,0 C -4.56,4.56 -4.56,9.12 0,13.68 L 20.52,34.2 c 4.56,4.56 9.12,4.56 13.68,0 L 54.72,13.68 C 59.28,9.12 59.28,4.56 54.72,0 L 34.2,-20.521 c -4.56,-4.559 -9.12,-4.559 -13.68,0 z" /></g><g
           transform="translate(219.7598,142.4404)"
           id="g132"><path
             id="path134"
             style="fill:#000000;fill-opacity:1;fill-rule:nonzero;stroke:none"
             d="M 0,0 C -5.04,5.04 -5.04,10.079 0,15.119 L 22.68,37.8 c 5.04,5.04 10.08,5.04 15.12,0 L 60.48,15.119 C 65.52,10.079 65.52,5.04 60.48,0 L 37.8,-22.681 c -5.04,-5.04 -10.08,-5.04 -15.12,0 z" /></g><g
           transform="translate(216.8799,41.7197)"
           id="g136"><path
             id="path138"
             style="fill:#000000;fill-opacity:1;fill-rule:nonzero;stroke:none"
             d="M 0,0 C -5.52,5.521 -5.52,11.04 0,16.561 L 24.84,41.4 c 5.52,5.52 11.04,5.52 16.56,0 L 66.24,16.561 C 71.76,11.04 71.76,5.521 66.24,0 L 41.4,-24.84 c -5.52,-5.519 -11.04,-5.519 -16.56,0 z" /></g><g
           transform="translate(342.7998,948.2002)"
           id="g140"><path
             id="path142"
             style="fill:#000000;fill-opacity:1;fill-rule:nonzero;stroke:none"
             d="M 0,0 C -1.2,1.2 -1.2,2.4 0,3.6 L 5.4,9 C 6.601,10.2 7.8,10.2 9,9 L 14.4,3.6 C 15.601,2.4 15.601,1.2 14.4,0 L 9,-5.4 c -1.2,-1.2 -2.399,-1.2 -3.6,0 z" /></g><g
           transform="translate(339.9199,847.48)"
           id="g144"><path
             id="path146"
             style="fill:#000000;fill-opacity:1;fill-rule:nonzero;stroke:none"
             d="m 0,0 c -1.68,1.68 -1.68,3.36 0,5.04 l 7.561,7.56 c 1.679,1.68 3.359,1.68 5.039,0 L 20.16,5.04 C 21.84,3.36 21.84,1.68 20.16,0 L 12.6,-7.56 c -1.68,-1.68 -3.36,-1.68 -5.039,0 z" /></g><g
           transform="translate(337.04,746.7598)"
           id="g148"><path
             id="path150"
             style="fill:#000000;fill-opacity:1;fill-rule:nonzero;stroke:none"
             d="m 0,0 c -2.16,2.16 -2.16,4.32 0,6.48 l 9.72,9.72 c 2.16,2.16 4.32,2.16 6.48,0 L 25.92,6.48 C 28.08,4.32 28.08,2.16 25.92,0 L 16.2,-9.72 c -2.16,-2.16 -4.32,-2.16 -6.48,0 z" /></g><g
           transform="translate(334.1602,646.04)"
           id="g152"><path
             id="path154"
             style="fill:#000000;fill-opacity:1;fill-rule:nonzero;stroke:none"
             d="M 0,0 C -2.641,2.64 -2.641,5.28 0,7.92 L 11.88,19.8 c 2.64,2.64 5.28,2.64 7.92,0 L 31.68,7.92 C 34.32,5.28 34.32,2.64 31.68,0 L 19.8,-11.88 c -2.64,-2.64 -5.28,-2.64 -7.92,0 z" /></g><g
           transform="translate(331.2803,545.3203)"
           id="g156"><path
             id="path158"
             style="fill:#000000;fill-opacity:1;fill-rule:nonzero;stroke:none"
             d="m 0,0 c -3.12,3.12 -3.12,6.239 0,9.359 l 14.04,14.04 c 3.12,3.121 6.239,3.121 9.359,0 L 37.439,9.359 C 40.56,6.239 40.56,3.12 37.439,0 l -14.04,-14.04 c -3.12,-3.12 -6.239,-3.12 -9.359,0 z" /></g><g
           transform="translate(328.4004,444.5996)"
           id="g160"><path
             id="path162"
             style="fill:#000000;fill-opacity:1;fill-rule:nonzero;stroke:none"
             d="M 0,0 C -3.601,3.601 -3.601,7.2 0,10.801 L 16.199,27 c 3.601,3.601 7.2,3.601 10.801,0 L 43.199,10.801 C 46.8,7.2 46.8,3.601 43.199,0 L 27,-16.199 c -3.601,-3.601 -7.2,-3.601 -10.801,0 z" /></g><g
           transform="translate(325.5195,343.8799)"
           id="g164"><path
             id="path166"
             style="fill:#000000;fill-opacity:1;fill-rule:nonzero;stroke:none"
             d="m 0,0 c -4.079,4.08 -4.079,8.16 0,12.24 l 18.36,18.361 c 4.08,4.079 8.161,4.079 12.241,0 L 48.961,12.24 C 53.04,8.16 53.04,4.08 48.961,0 l -18.36,-18.36 c -4.08,-4.079 -8.161,-4.079 -12.241,0 z" /></g><g
           transform="translate(322.6396,243.1602)"
           id="g168"><path
             id="path170"
             style="fill:#000000;fill-opacity:1;fill-rule:nonzero;stroke:none"
             d="M 0,0 C -4.56,4.56 -4.56,9.12 0,13.68 L 20.521,34.2 c 4.559,4.56 9.12,4.56 13.679,0 L 54.721,13.68 C 59.28,9.12 59.28,4.56 54.721,0 L 34.2,-20.521 c -4.559,-4.559 -9.12,-4.559 -13.679,0 z" /></g><g
           transform="translate(319.7598,142.4404)"
           id="g172"><path
             id="path174"
             style="fill:#000000;fill-opacity:1;fill-rule:nonzero;stroke:none"
             d="M 0,0 C -5.04,5.04 -5.04,10.079 0,15.119 L 22.681,37.8 c 5.04,5.04 10.079,5.04 15.119,0 L 60.48,15.119 C 65.521,10.079 65.521,5.04 60.48,0 L 37.8,-22.681 c -5.04,-5.04 -10.079,-5.04 -15.119,0 z" /></g><g
           transform="translate(316.8799,41.7197)"
           id="g176"><path
             id="path178"
             style="fill:#000000;fill-opacity:1;fill-rule:nonzero;stroke:none"
             d="M 0,0 C -5.52,5.521 -5.52,11.04 0,16.561 L 24.84,41.4 c 5.52,5.52 11.04,5.52 16.56,0 L 66.24,16.561 C 71.76,11.04 71.76,5.521 66.24,0 L 41.4,-24.84 c -5.52,-5.519 -11.04,-5.519 -16.56,0 z" /></g><g
           transform="translate(442.7998,948.2002)"
           id="g180"><path
             id="path182"
             style="fill:#000000;fill-opacity:1;fill-rule:nonzero;stroke:none"
             d="M 0,0 C -1.2,1.2 -1.2,2.4 0,3.6 L 5.4,9 C 6.601,10.2 7.8,10.2 9,9 L 14.4,3.6 C 15.601,2.4 15.601,1.2 14.4,0 L 9,-5.4 c -1.2,-1.2 -2.399,-1.2 -3.6,0 z" /></g><g
           transform="translate(439.9199,847.48)"
           id="g184"><path
             id="path186"
             style="fill:#000000;fill-opacity:1;fill-rule:nonzero;stroke:none"
             d="m 0,0 c -1.68,1.68 -1.68,3.36 0,5.04 l 7.561,7.56 c 1.679,1.68 3.359,1.68 5.039,0 L 20.16,5.04 C 21.84,3.36 21.84,1.68 20.16,0 L 12.6,-7.56 c -1.68,-1.68 -3.36,-1.68 -5.039,0 z" /></g><g
           transform="translate(437.04,746.7598)"
           id="g188"><path
             id="path190"
             style="fill:#000000;fill-opacity:1;fill-rule:nonzero;stroke:none"
             d="m 0,0 c -2.16,2.16 -2.16,4.32 0,6.48 l 9.72,9.72 c 2.16,2.16 4.32,2.16 6.48,0 L 25.92,6.48 C 28.08,4.32 28.08,2.16 25.92,0 L 16.2,-9.72 c -2.16,-2.16 -4.32,-2.16 -6.48,0 z" /></g><g
           transform="translate(434.1602,646.04)"
           id="g192"><path
             id="path194"
             style="fill:#000000;fill-opacity:1;fill-rule:nonzero;stroke:none"
             d="M 0,0 C -2.641,2.64 -2.641,5.28 0,7.92 L 11.88,19.8 c 2.64,2.64 5.28,2.64 7.92,0 L 31.68,7.92 C 34.32,5.28 34.32,2.64 31.68,0 L 19.8,-11.88 c -2.64,-2.64 -5.28,-2.64 -7.92,0 z" /></g><g
           transform="translate(431.2803,545.3203)"
           id="g196"><path
             id="path198"
             style="fill:#000000;fill-opacity:1;fill-rule:nonzero;stroke:none"
             d="m 0,0 c -3.12,3.12 -3.12,6.239 0,9.359 l 14.04,14.04 c 3.12,3.121 6.239,3.121 9.359,0 L 37.439,9.359 C 40.56,6.239 40.56,3.12 37.439,0 l -14.04,-14.04 c -3.12,-3.12 -6.239,-3.12 -9.359,0 z" /></g><g
           transform="translate(428.4004,444.5996)"
           id="g200"><path
             id="path202"
             style="fill:#000000;fill-opacity:1;fill-rule:nonzero;stroke:none"
             d="M 0,0 C -3.601,3.601 -3.601,7.2 0,10.801 L 16.199,27 c 3.601,3.601 7.2,3.601 10.801,0 L 43.199,10.801 C 46.8,7.2 46.8,3.601 43.199,0 L 27,-16.199 c -3.601,-3.601 -7.2,-3.601 -10.801,0 z" /></g><g
           transform="translate(425.5195,343.8799)"
           id="g204"><path
             id="path206"
             style="fill:#000000;fill-opacity:1;fill-rule:nonzero;stroke:none"
             d="m 0,0 c -4.079,4.08 -4.079,8.16 0,12.24 l 18.36,18.361 c 4.08,4.079 8.161,4.079 12.241,0 L 48.961,12.24 C 53.04,8.16 53.04,4.08 48.961,0 l -18.36,-18.36 c -4.08,-4.079 -8.161,-4.079 -12.241,0 z" /></g><g
           transform="translate(422.6396,243.1602)"
           id="g208"><path
             id="path210"
             style="fill:#000000;fill-opacity:1;fill-rule:nonzero;stroke:none"
             d="M 0,0 C -4.56,4.56 -4.56,9.12 0,13.68 L 20.521,34.2 c 4.559,4.56 9.12,4.56 13.679,0 L 54.721,13.68 C 59.28,9.12 59.28,4.56 54.721,0 L 34.2,-20.521 c -4.559,-4.559 -9.12,-4.559 -13.679,0 z" /></g><g
           transform="translate(419.7598,142.4404)"
           id="g212"><path
             id="path214"
             style="fill:#000000;fill-opacity:1;fill-rule:nonzero;stroke:none"
             d="M 0,0 C -5.04,5.04 -5.04,10.079 0,15.119 L 22.681,37.8 c 5.04,5.04 10.079,5.04 15.119,0 L 60.48,15.119 C 65.521,10.079 65.521,5.04 60.48,0 L 37.8,-22.681 c -5.04,-5.04 -10.079,-5.04 -15.119,0 z" /></g><g
           transform="translate(416.8799,41.7197)"
           id="g216"><path
             id="path218"
             style="fill:#000000;fill-opacity:1;fill-rule:nonzero;stroke:none"
             d="M 0,0 C -5.52,5.521 -5.52,11.04 0,16.561 L 24.84,41.4 c 5.52,5.52 11.04,5.52 16.56,0 L 66.24,16.561 C 71.76,11.04 71.76,5.521 66.24,0 L 41.4,-24.84 c -5.52,-5.519 -11.04,-5.519 -16.56,0 z" /></g><g
           transform="translate(542.7998,948.2002)"
           id="g220"><path
             id="path222"
             style="fill:#000000;fill-opacity:1;fill-rule:nonzero;stroke:none"
             d="M 0,0 C -1.2,1.2 -1.2,2.4 0,3.6 L 5.4,9 C 6.601,10.2 7.8,10.2 9,9 L 14.4,3.6 C 15.601,2.4 15.601,1.2 14.4,0 L 9,-5.4 c -1.2,-1.2 -2.399,-1.2 -3.6,0 z" /></g><g
           transform="translate(539.9199,847.48)"
           id="g224"><path
             id="path226"
             style="fill:#000000;fill-opacity:1;fill-rule:nonzero;stroke:none"
             d="m 0,0 c -1.68,1.68 -1.68,3.36 0,5.04 l 7.561,7.56 c 1.679,1.68 3.359,1.68 5.039,0 L 20.16,5.04 C 21.84,3.36 21.84,1.68 20.16,0 L 12.6,-7.56 c -1.68,-1.68 -3.36,-1.68 -5.039,0 z" /></g><g
           transform="translate(537.04,746.7598)"
           id="g228"><path
             id="path230"
             style="fill:#000000;fill-opacity:1;fill-rule:nonzero;stroke:none"
             d="m 0,0 c -2.16,2.16 -2.16,4.32 0,6.48 l 9.72,9.72 c 2.16,2.16 4.32,2.16 6.48,0 L 25.92,6.48 C 28.08,4.32 28.08,2.16 25.92,0 L 16.2,-9.72 c -2.16,-2.16 -4.32,-2.16 -6.48,0 z" /></g><g
           transform="translate(534.1602,646.04)"
           id="g232"><path
             id="path234"
             style="fill:#000000;fill-opacity:1;fill-rule:nonzero;stroke:none"
             d="M 0,0 C -2.641,2.64 -2.641,5.28 0,7.92 L 11.88,19.8 c 2.64,2.64 5.28,2.64 7.92,0 L 31.68,7.92 C 34.32,5.28 34.32,2.64 31.68,0 L 19.8,-11.88 c -2.64,-2.64 -5.28,-2.64 -7.92,0 z" /></g><g
           transform="translate(531.2803,545.3203)"
           id="g236"><path
             id="path238"
             style="fill:#000000;fill-opacity:1;fill-rule:nonzero;stroke:none"
             d="m 0,0 c -3.12,3.12 -3.12,6.239 0,9.359 l 14.04,14.04 c 3.12,3.121 6.239,3.121 9.359,0 L 37.439,9.359 C 40.56,6.239 40.56,3.12 37.439,0 l -14.04,-14.04 c -3.12,-3.12 -6.239,-3.12 -9.359,0 z" /></g><g
           transform="translate(528.4004,444.5996)"
           id="g240"><path
             id="path242"
             style="fill:#000000;fill-opacity:1;fill-rule:nonzero;stroke:none"
             d="M 0,0 C -3.601,3.601 -3.601,7.2 0,10.801 L 16.199,27 c 3.601,3.601 7.2,3.601 10.801,0 L 43.199,10.801 C 46.8,7.2 46.8,3.601 43.199,0 L 27,-16.199 c -3.601,-3.601 -7.2,-3.601 -10.801,0 z" /></g><g
           transform="translate(525.5195,343.8799)"
           id="g244"><path
             id="path246"
             style="fill:#000000;fill-opacity:1;fill-rule:nonzero;stroke:none"
             d="m 0,0 c -4.079,4.08 -4.079,8.16 0,12.24 l 18.36,18.361 c 4.08,4.079 8.161,4.079 12.241,0 L 48.961,12.24 C 53.04,8.16 53.04,4.08 48.961,0 l -18.36,-18.36 c -4.08,-4.079 -8.161,-4.079 -12.241,0 z" /></g><g
           transform="translate(522.6396,243.1602)"
           id="g248"><path
             id="path250"
             style="fill:#000000;fill-opacity:1;fill-rule:nonzero;stroke:none"
             d="M 0,0 C -4.56,4.56 -4.56,9.12 0,13.68 L 20.521,34.2 c 4.559,4.56 9.12,4.56 13.679,0 L 54.721,13.68 C 59.28,9.12 59.28,4.56 54.721,0 L 34.2,-20.521 c -4.559,-4.559 -9.12,-4.559 -13.679,0 z" /></g><g
           transform="translate(519.7598,142.4404)"
           id="g252"><path
             id="path254"
             style="fill:#000000;fill-opacity:1;fill-rule:nonzero;stroke:none"
             d="M 0,0 C -5.04,5.04 -5.04,10.079 0,15.119 L 22.681,37.8 c 5.04,5.04 10.079,5.04 15.119,0 L 60.48,15.119 C 65.521,10.079 65.521,5.04 60.48,0 L 37.8,-22.681 c -5.04,-5.04 -10.079,-5.04 -15.119,0 z" /></g><g
           transform="translate(516.8799,41.7197)"
           id="g256"><path
             id="path258"
             style="fill:#000000;fill-opacity:1;fill-rule:nonzero;stroke:none"
             d="M 0,0 C -5.52,5.521 -5.52,11.04 0,16.561 L 24.84,41.4 c 5.52,5.52 11.04,5.52 16.56,0 L 66.24,16.561 C 71.76,11.04 71.76,5.521 66.24,0 L 41.4,-24.84 c -5.52,-5.519 -11.04,-5.519 -16.56,0 z" /></g><g
           transform="translate(642.7998,948.2002)"
           id="g260"><path
             id="path262"
             style="fill:#000000;fill-opacity:1;fill-rule:nonzero;stroke:none"
             d="M 0,0 C -1.2,1.2 -1.2,2.4 0,3.6 L 5.4,9 C 6.601,10.2 7.8,10.2 9,9 L 14.4,3.6 C 15.601,2.4 15.601,1.2 14.4,0 L 9,-5.4 c -1.2,-1.2 -2.399,-1.2 -3.6,0 z" /></g><g
           transform="translate(639.9199,847.48)"
           id="g264"><path
             id="path266"
             style="fill:#000000;fill-opacity:1;fill-rule:nonzero;stroke:none"
             d="m 0,0 c -1.68,1.68 -1.68,3.36 0,5.04 l 7.561,7.56 c 1.679,1.68 3.359,1.68 5.039,0 L 20.16,5.04 C 21.84,3.36 21.84,1.68 20.16,0 L 12.6,-7.56 c -1.68,-1.68 -3.36,-1.68 -5.039,0 z" /></g><g
           transform="translate(637.04,746.7598)"
           id="g268"><path
             id="path270"
             style="fill:#000000;fill-opacity:1;fill-rule:nonzero;stroke:none"
             d="m 0,0 c -2.16,2.16 -2.16,4.32 0,6.48 l 9.72,9.72 c 2.16,2.16 4.32,2.16 6.48,0 L 25.92,6.48 C 28.08,4.32 28.08,2.16 25.92,0 L 16.2,-9.72 c -2.16,-2.16 -4.32,-2.16 -6.48,0 z" /></g><g
           transform="translate(634.1602,646.04)"
           id="g272"><path
             id="path274"
             style="fill:#000000;fill-opacity:1;fill-rule:nonzero;stroke:none"
             d="M 0,0 C -2.641,2.64 -2.641,5.28 0,7.92 L 11.88,19.8 c 2.64,2.64 5.28,2.64 7.92,0 L 31.68,7.92 C 34.32,5.28 34.32,2.64 31.68,0 L 19.8,-11.88 c -2.64,-2.64 -5.28,-2.64 -7.92,0 z" /></g><g
           transform="translate(631.2803,545.3203)"
           id="g276"><path
             id="path278"
             style="fill:#000000;fill-opacity:1;fill-rule:nonzero;stroke:none"
             d="m 0,0 c -3.12,3.12 -3.12,6.239 0,9.359 l 14.04,14.04 c 3.12,3.121 6.239,3.121 9.359,0 L 37.439,9.359 C 40.56,6.239 40.56,3.12 37.439,0 l -14.04,-14.04 c -3.12,-3.12 -6.239,-3.12 -9.359,0 z" /></g><g
           transform="translate(628.4004,444.5996)"
           id="g280"><path
             id="path282"
             style="fill:#000000;fill-opacity:1;fill-rule:nonzero;stroke:none"
             d="M 0,0 C -3.601,3.601 -3.601,7.2 0,10.801 L 16.199,27 c 3.601,3.601 7.2,3.601 10.801,0 L 43.199,10.801 C 46.8,7.2 46.8,3.601 43.199,0 L 27,-16.199 c -3.601,-3.601 -7.2,-3.601 -10.801,0 z" /></g><g
           transform="translate(625.5195,343.8799)"
           id="g284"><path
             id="path286"
             style="fill:#000000;fill-opacity:1;fill-rule:nonzero;stroke:none"
             d="m 0,0 c -4.079,4.08 -4.079,8.16 0,12.24 l 18.36,18.361 c 4.08,4.079 8.161,4.079 12.241,0 L 48.961,12.24 C 53.04,8.16 53.04,4.08 48.961,0 l -18.36,-18.36 c -4.08,-4.079 -8.161,-4.079 -12.241,0 z" /></g><g
           transform="translate(622.6396,243.1602)"
           id="g288"><path
             id="path290"
             style="fill:#000000;fill-opacity:1;fill-rule:nonzero;stroke:none"
             d="M 0,0 C -4.56,4.56 -4.56,9.12 0,13.68 L 20.521,34.2 c 4.559,4.56 9.12,4.56 13.679,0 L 54.721,13.68 C 59.28,9.12 59.28,4.56 54.721,0 L 34.2,-20.521 c -4.559,-4.559 -9.12,-4.559 -13.679,0 z" /></g><g
           transform="translate(619.7598,142.4404)"
           id="g292"><path
             id="path294"
             style="fill:#000000;fill-opacity:1;fill-rule:nonzero;stroke:none"
             d="M 0,0 C -5.04,5.04 -5.04,10.079 0,15.119 L 22.681,37.8 c 5.04,5.04 10.079,5.04 15.119,0 L 60.48,15.119 C 65.521,10.079 65.521,5.04 60.48,0 L 37.8,-22.681 c -5.04,-5.04 -10.079,-5.04 -15.119,0 z" /></g><g
           transform="translate(616.8799,41.7197)"
           id="g296"><path
             id="path298"
             style="fill:#000000;fill-opacity:1;fill-rule:nonzero;stroke:none"
             d="M 0,0 C -5.52,5.521 -5.52,11.04 0,16.561 L 24.84,41.4 c 5.52,5.52 11.04,5.52 16.56,0 L 66.24,16.561 C 71.76,11.04 71.76,5.521 66.24,0 L 41.4,-24.84 c -5.52,-5.519 -11.04,-5.519 -16.56,0 z" /></g><g
           transform="translate(742.7998,948.2002)"
           id="g300"><path
             id="path302"
             style="fill:#000000;fill-opacity:1;fill-rule:nonzero;stroke:none"
             d="M 0,0 C -1.2,1.2 -1.2,2.4 0,3.6 L 5.4,9 C 6.601,10.2 7.8,10.2 9,9 L 14.4,3.6 C 15.601,2.4 15.601,1.2 14.4,0 L 9,-5.4 c -1.2,-1.2 -2.399,-1.2 -3.6,0 z" /></g><g
           transform="translate(739.9199,847.48)"
           id="g304"><path
             id="path306"
             style="fill:#000000;fill-opacity:1;fill-rule:nonzero;stroke:none"
             d="m 0,0 c -1.68,1.68 -1.68,3.36 0,5.04 l 7.561,7.56 c 1.679,1.68 3.359,1.68 5.039,0 L 20.16,5.04 C 21.84,3.36 21.84,1.68 20.16,0 L 12.6,-7.56 c -1.68,-1.68 -3.36,-1.68 -5.039,0 z" /></g><g
           transform="translate(737.04,746.7598)"
           id="g308"><path
             id="path310"
             style="fill:#000000;fill-opacity:1;fill-rule:nonzero;stroke:none"
             d="m 0,0 c -2.16,2.16 -2.16,4.32 0,6.48 l 9.72,9.72 c 2.16,2.16 4.32,2.16 6.48,0 L 25.92,6.48 C 28.08,4.32 28.08,2.16 25.92,0 L 16.2,-9.72 c -2.16,-2.16 -4.32,-2.16 -6.48,0 z" /></g><g
           transform="translate(734.1602,646.04)"
           id="g312"><path
             id="path314"
             style="fill:#000000;fill-opacity:1;fill-rule:nonzero;stroke:none"
             d="M 0,0 C -2.641,2.64 -2.641,5.28 0,7.92 L 11.88,19.8 c 2.64,2.64 5.28,2.64 7.92,0 L 31.68,7.92 C 34.32,5.28 34.32,2.64 31.68,0 L 19.8,-11.88 c -2.64,-2.64 -5.28,-2.64 -7.92,0 z" /></g><g
           transform="translate(731.2803,545.3203)"
           id="g316"><path
             id="path318"
             style="fill:#000000;fill-opacity:1;fill-rule:nonzero;stroke:none"
             d="m 0,0 c -3.12,3.12 -3.12,6.239 0,9.359 l 14.04,14.04 c 3.12,3.121 6.239,3.121 9.359,0 L 37.439,9.359 C 40.56,6.239 40.56,3.12 37.439,0 l -14.04,-14.04 c -3.12,-3.12 -6.239,-3.12 -9.359,0 z" /></g><g
           transform="translate(728.4004,444.5996)"
           id="g320"><path
             id="path322"
             style="fill:#000000;fill-opacity:1;fill-rule:nonzero;stroke:none"
             d="M 0,0 C -3.601,3.601 -3.601,7.2 0,10.801 L 16.199,27 c 3.601,3.601 7.2,3.601 10.801,0 L 43.199,10.801 C 46.8,7.2 46.8,3.601 43.199,0 L 27,-16.199 c -3.601,-3.601 -7.2,-3.601 -10.801,0 z" /></g><g
           transform="translate(725.5195,343.8799)"
           id="g324"><path
             id="path326"
             style="fill:#000000;fill-opacity:1;fill-rule:nonzero;stroke:none"
             d="m 0,0 c -4.079,4.08 -4.079,8.16 0,12.24 l 18.36,18.361 c 4.08,4.079 8.161,4.079 12.241,0 L 48.961,12.24 C 53.04,8.16 53.04,4.08 48.961,0 l -18.36,-18.36 c -4.08,-4.079 -8.161,-4.079 -12.241,0 z" /></g><g
           transform="translate(722.6396,243.1602)"
           id="g328"><path
             id="path330"
             style="fill:#000000;fill-opacity:1;fill-rule:nonzero;stroke:none"
             d="M 0,0 C -4.56,4.56 -4.56,9.12 0,13.68 L 20.521,34.2 c 4.559,4.56 9.12,4.56 13.679,0 L 54.721,13.68 C 59.28,9.12 59.28,4.56 54.721,0 L 34.2,-20.521 c -4.559,-4.559 -9.12,-4.559 -13.679,0 z" /></g><g
           transform="translate(719.7598,142.4404)"
           id="g332"><path
             id="path334"
             style="fill:#000000;fill-opacity:1;fill-rule:nonzero;stroke:none"
             d="M 0,0 C -5.04,5.04 -5.04,10.079 0,15.119 L 22.681,37.8 c 5.04,5.04 10.079,5.04 15.119,0 L 60.48,15.119 C 65.521,10.079 65.521,5.04 60.48,0 L 37.8,-22.681 c -5.04,-5.04 -10.079,-5.04 -15.119,0 z" /></g><g
           transform="translate(716.8799,41.7197)"
           id="g336"><path
             id="path338"
             style="fill:#000000;fill-opacity:1;fill-rule:nonzero;stroke:none"
             d="M 0,0 C -5.52,5.521 -5.52,11.04 0,16.561 L 24.84,41.4 c 5.52,5.52 11.04,5.52 16.56,0 L 66.24,16.561 C 71.76,11.04 71.76,5.521 66.24,0 L 41.4,-24.84 c -5.52,-5.519 -11.04,-5.519 -16.56,0 z" /></g><g
           transform="translate(842.7998,948.2002)"
           id="g340"><path
             id="path342"
             style="fill:#000000;fill-opacity:1;fill-rule:nonzero;stroke:none"
             d="M 0,0 C -1.2,1.2 -1.2,2.4 0,3.6 L 5.4,9 C 6.601,10.2 7.8,10.2 9,9 L 14.4,3.6 C 15.601,2.4 15.601,1.2 14.4,0 L 9,-5.4 c -1.2,-1.2 -2.399,-1.2 -3.6,0 z" /></g><g
           transform="translate(839.9199,847.48)"
           id="g344"><path
             id="path346"
             style="fill:#000000;fill-opacity:1;fill-rule:nonzero;stroke:none"
             d="m 0,0 c -1.68,1.68 -1.68,3.36 0,5.04 l 7.561,7.56 c 1.679,1.68 3.359,1.68 5.039,0 L 20.16,5.04 C 21.84,3.36 21.84,1.68 20.16,0 L 12.6,-7.56 c -1.68,-1.68 -3.36,-1.68 -5.039,0 z" /></g><g
           transform="translate(837.04,746.7598)"
           id="g348"><path
             id="path350"
             style="fill:#000000;fill-opacity:1;fill-rule:nonzero;stroke:none"
             d="m 0,0 c -2.16,2.16 -2.16,4.32 0,6.48 l 9.72,9.72 c 2.16,2.16 4.32,2.16 6.48,0 L 25.92,6.48 C 28.08,4.32 28.08,2.16 25.92,0 L 16.2,-9.72 c -2.16,-2.16 -4.32,-2.16 -6.48,0 z" /></g><g
           transform="translate(834.1602,646.04)"
           id="g352"><path
             id="path354"
             style="fill:#000000;fill-opacity:1;fill-rule:nonzero;stroke:none"
             d="M 0,0 C -2.641,2.64 -2.641,5.28 0,7.92 L 11.88,19.8 c 2.64,2.64 5.28,2.64 7.92,0 L 31.68,7.92 C 34.32,5.28 34.32,2.64 31.68,0 L 19.8,-11.88 c -2.64,-2.64 -5.28,-2.64 -7.92,0 z" /></g><g
           transform="translate(831.2803,545.3203)"
           id="g356"><path
             id="path358"
             style="fill:#000000;fill-opacity:1;fill-rule:nonzero;stroke:none"
             d="m 0,0 c -3.12,3.12 -3.12,6.239 0,9.359 l 14.04,14.04 c 3.12,3.121 6.239,3.121 9.359,0 L 37.439,9.359 C 40.56,6.239 40.56,3.12 37.439,0 l -14.04,-14.04 c -3.12,-3.12 -6.239,-3.12 -9.359,0 z" /></g><g
           transform="translate(828.4004,444.5996)"
           id="g360"><path
             id="path362"
             style="fill:#000000;fill-opacity:1;fill-rule:nonzero;stroke:none"
             d="M 0,0 C -3.601,3.601 -3.601,7.2 0,10.801 L 16.199,27 c 3.601,3.601 7.2,3.601 10.801,0 L 43.199,10.801 C 46.8,7.2 46.8,3.601 43.199,0 L 27,-16.199 c -3.601,-3.601 -7.2,-3.601 -10.801,0 z" /></g><g
           transform="translate(825.5195,343.8799)"
           id="g364"><path
             id="path366"
             style="fill:#000000;fill-opacity:1;fill-rule:nonzero;stroke:none"
             d="m 0,0 c -4.079,4.08 -4.079,8.16 0,12.24 l 18.36,18.361 c 4.08,4.079 8.161,4.079 12.241,0 L 48.961,12.24 C 53.04,8.16 53.04,4.08 48.961,0 l -18.36,-18.36 c -4.08,-4.079 -8.161,-4.079 -12.241,0 z" /></g><g
           transform="translate(822.6396,243.1602)"
           id="g368"><path
             id="path370"
             style="fill:#000000;fill-opacity:1;fill-rule:nonzero;stroke:none"
             d="M 0,0 C -4.56,4.56 -4.56,9.12 0,13.68 L 20.521,34.2 c 4.559,4.56 9.12,4.56 13.679,0 L 54.721,13.68 C 59.28,9.12 59.28,4.56 54.721,0 L 34.2,-20.521 c -4.559,-4.559 -9.12,-4.559 -13.679,0 z" /></g><g
           transform="translate(819.7598,142.4404)"
           id="g372"><path
             id="path374"
             style="fill:#000000;fill-opacity:1;fill-rule:nonzero;stroke:none"
             d="M 0,0 C -5.04,5.04 -5.04,10.079 0,15.119 L 22.681,37.8 c 5.04,5.04 10.079,5.04 15.119,0 L 60.48,15.119 C 65.521,10.079 65.521,5.04 60.48,0 L 37.8,-22.681 c -5.04,-5.04 -10.079,-5.04 -15.119,0 z" /></g><g
           transform="translate(816.8799,41.7197)"
           id="g376"><path
             id="path378"
             style="fill:#000000;fill-opacity:1;fill-rule:nonzero;stroke:none"
             d="M 0,0 C -5.52,5.521 -5.52,11.04 0,16.561 L 24.84,41.4 c 5.52,5.52 11.04,5.52 16.56,0 L 66.24,16.561 C 71.76,11.04 71.76,5.521 66.24,0 L 41.4,-24.84 c -5.52,-5.519 -11.04,-5.519 -16.56,0 z" /></g><g
           transform="translate(942.7998,948.2002)"
           id="g380"><path
             id="path382"
             style="fill:#000000;fill-opacity:1;fill-rule:nonzero;stroke:none"
             d="M 0,0 C -1.2,1.2 -1.2,2.4 0,3.6 L 5.4,9 C 6.601,10.2 7.8,10.2 9,9 L 14.4,3.6 C 15.601,2.4 15.601,1.2 14.4,0 L 9,-5.4 c -1.2,-1.2 -2.399,-1.2 -3.6,0 z" /></g><g
           transform="translate(939.9199,847.48)"
           id="g384"><path
             id="path386"
             style="fill:#000000;fill-opacity:1;fill-rule:nonzero;stroke:none"
             d="m 0,0 c -1.68,1.68 -1.68,3.36 0,5.04 l 7.561,7.56 c 1.679,1.68 3.359,1.68 5.039,0 L 20.16,5.04 C 21.84,3.36 21.84,1.68 20.16,0 L 12.6,-7.56 c -1.68,-1.68 -3.36,-1.68 -5.039,0 z" /></g><g
           transform="translate(937.04,746.7598)"
           id="g388"><path
             id="path390"
             style="fill:#000000;fill-opacity:1;fill-rule:nonzero;stroke:none"
             d="m 0,0 c -2.16,2.16 -2.16,4.32 0,6.48 l 9.72,9.72 c 2.16,2.16 4.32,2.16 6.48,0 L 25.92,6.48 C 28.08,4.32 28.08,2.16 25.92,0 L 16.2,-9.72 c -2.16,-2.16 -4.32,-2.16 -6.48,0 z" /></g><g
           transform="translate(934.1602,646.04)"
           id="g392"><path
             id="path394"
             style="fill:#000000;fill-opacity:1;fill-rule:nonzero;stroke:none"
             d="M 0,0 C -2.641,2.64 -2.641,5.28 0,7.92 L 11.88,19.8 c 2.64,2.64 5.28,2.64 7.92,0 L 31.68,7.92 C 34.32,5.28 34.32,2.64 31.68,0 L 19.8,-11.88 c -2.64,-2.64 -5.28,-2.64 -7.92,0 z" /></g><g
           transform="translate(931.2803,545.3203)"
           id="g396"><path
             id="path398"
             style="fill:#000000;fill-opacity:1;fill-rule:nonzero;stroke:none"
             d="m 0,0 c -3.12,3.12 -3.12,6.239 0,9.359 l 14.04,14.04 c 3.12,3.121 6.239,3.121 9.359,0 L 37.439,9.359 C 40.56,6.239 40.56,3.12 37.439,0 l -14.04,-14.04 c -3.12,-3.12 -6.239,-3.12 -9.359,0 z" /></g><g
           transform="translate(928.4004,444.5996)"
           id="g400"><path
             id="path402"
             style="fill:#000000;fill-opacity:1;fill-rule:nonzero;stroke:none"
             d="M 0,0 C -3.601,3.601 -3.601,7.2 0,10.801 L 16.199,27 c 3.601,3.601 7.2,3.601 10.801,0 L 43.199,10.801 C 46.8,7.2 46.8,3.601 43.199,0 L 27,-16.199 c -3.601,-3.601 -7.2,-3.601 -10.801,0 z" /></g><g
           transform="translate(925.5195,343.8799)"
           id="g404"><path
             id="path406"
             style="fill:#000000;fill-opacity:1;fill-rule:nonzero;stroke:none"
             d="m 0,0 c -4.079,4.08 -4.079,8.16 0,12.24 l 18.36,18.361 c 4.08,4.079 8.161,4.079 12.241,0 L 48.961,12.24 C 53.04,8.16 53.04,4.08 48.961,0 l -18.36,-18.36 c -4.08,-4.079 -8.161,-4.079 -12.241,0 z" /></g><g
           transform="translate(922.6396,243.1602)"
           id="g408"><path
             id="path410"
             style="fill:#000000;fill-opacity:1;fill-rule:nonzero;stroke:none"
             d="M 0,0 C -4.56,4.56 -4.56,9.12 0,13.68 L 20.521,34.2 c 4.559,4.56 9.12,4.56 13.679,0 L 54.721,13.68 C 59.28,9.12 59.28,4.56 54.721,0 L 34.2,-20.521 c -4.559,-4.559 -9.12,-4.559 -13.679,0 z" /></g><g
           transform="translate(919.7598,142.4404)"
           id="g412"><path
             id="path414"
             style="fill:#000000;fill-opacity:1;fill-rule:nonzero;stroke:none"
             d="M 0,0 C -5.04,5.04 -5.04,10.079 0,15.119 L 22.681,37.8 c 5.04,5.04 10.079,5.04 15.119,0 L 60.48,15.119 C 65.521,10.079 65.521,5.04 60.48,0 L 37.8,-22.681 c -5.04,-5.04 -10.079,-5.04 -15.119,0 z" /></g><g
           transform="translate(916.8799,41.7197)"
           id="g416"><path
             id="path418"
             style="fill:#000000;fill-opacity:1;fill-rule:nonzero;stroke:none"
             d="M 0,0 C -5.52,5.521 -5.52,11.04 0,16.561 L 24.84,41.4 c 5.52,5.52 11.04,5.52 16.56,0 L 66.24,16.561 C 71.76,11.04 71.76,5.521 66.24,0 L 41.4,-24.84 c -5.52,-5.519 -11.04,-5.519 -16.56,0 z" /></g><g
           transform="translate(-6.3999,998.3999)"
           id="g420"><path
             id="path422"
             style="fill:#000000;fill-opacity:1;fill-rule:nonzero;stroke:none"
             d="M 0,0 C -1.067,1.067 -1.067,2.133 0,3.2 L 4.8,8 C 5.867,9.067 6.933,9.067 8,8 L 12.8,3.2 C 13.867,2.133 13.867,1.067 12.8,0 L 8,-4.8 c -1.067,-1.067 -2.133,-1.067 -3.2,0 z" /></g><g
           transform="translate(-9.6001,897.6001)"
           id="g424"><path
             id="path426"
             style="fill:#000000;fill-opacity:1;fill-rule:nonzero;stroke:none"
             d="M 0,0 C -1.6,1.6 -1.6,3.2 0,4.8 L 7.2,12 c 1.6,1.6 3.2,1.6 4.8,0 L 19.2,4.8 C 20.8,3.2 20.8,1.6 19.2,0 L 12,-7.2 c -1.6,-1.6 -3.2,-1.6 -4.8,0 z" /></g><g
           transform="translate(-12.7998,796.7998)"
           id="g428"><path
             id="path430"
             style="fill:#000000;fill-opacity:1;fill-rule:nonzero;stroke:none"
             d="M 0,0 C -2.133,2.134 -2.133,4.267 0,6.4 L 9.6,16 c 2.133,2.134 4.267,2.134 6.4,0 L 25.6,6.4 C 27.733,4.267 27.733,2.134 25.6,0 L 16,-9.6 c -2.133,-2.133 -4.267,-2.133 -6.4,0 z" /></g><g
           transform="translate(-16,696)"
           id="g432"><path
             id="path434"
             style="fill:#000000;fill-opacity:1;fill-rule:nonzero;stroke:none"
             d="m 0,0 c -2.667,2.667 -2.667,5.333 0,8 l 12,12 c 2.667,2.667 5.333,2.667 8,0 L 32,8 C 34.667,5.333 34.667,2.667 32,0 L 20,-12 c -2.667,-2.667 -5.333,-2.667 -8,0 z" /></g><g
           transform="translate(-19.2002,595.2002)"
           id="g436"><path
             id="path438"
             style="fill:#000000;fill-opacity:1;fill-rule:nonzero;stroke:none"
             d="M 0,0 C -3.2,3.2 -3.2,6.399 0,9.6 L 14.4,24 c 3.2,3.2 6.4,3.2 9.6,0 L 38.4,9.6 C 41.6,6.399 41.6,3.2 38.4,0 L 24,-14.4 c -3.2,-3.201 -6.4,-3.201 -9.6,0 z" /></g><g
           transform="translate(-22.3999,494.4004)"
           id="g440"><path
             id="path442"
             style="fill:#000000;fill-opacity:1;fill-rule:nonzero;stroke:none"
             d="M 0,0 C -3.733,3.733 -3.733,7.466 0,11.199 L 16.8,28 c 3.733,3.733 7.467,3.733 11.2,0 L 44.8,11.199 C 48.533,7.466 48.533,3.733 44.8,0 L 28,-16.801 c -3.733,-3.733 -7.467,-3.733 -11.2,0 z" /></g><g
           transform="translate(-25.6001,393.5996)"
           id="g444"><path
             id="path446"
             style="fill:#000000;fill-opacity:1;fill-rule:nonzero;stroke:none"
             d="M 0,0 C -4.267,4.267 -4.267,8.534 0,12.801 L 19.2,32 c 4.267,4.267 8.533,4.267 12.8,0 L 51.2,12.801 C 55.467,8.534 55.467,4.267 51.2,0 L 32,-19.199 c -4.267,-4.267 -8.533,-4.267 -12.8,0 z" /></g><g
           transform="translate(-28.7998,292.7998)"
           id="g448"><path
             id="path450"
             style="fill:#000000;fill-opacity:1;fill-rule:nonzero;stroke:none"
             d="M 0,0 C -4.8,4.8 -4.8,9.601 0,14.4 L 21.6,36 c 4.8,4.8 9.6,4.8 14.4,0 L 57.6,14.4 C 62.4,9.601 62.4,4.8 57.6,0 L 36,-21.6 c -4.8,-4.799 -9.6,-4.799 -14.4,0 z" /></g><g
           transform="translate(-32,192)"
           id="g452"><path
             id="path454"
             style="fill:#000000;fill-opacity:1;fill-rule:nonzero;stroke:none"
             d="m 0,0 c -5.333,5.333 -5.333,10.667 0,16 l 24,24 c 5.333,5.333 10.667,5.333 16,0 L 64,16 C 69.333,10.667 69.333,5.333 64,0 L 40,-24 c -5.333,-5.333 -10.667,-5.333 -16,0 z" /></g><g
           transform="translate(-35.2002,91.2002)"
           id="g456"><path
             id="path458"
             style="fill:#000000;fill-opacity:1;fill-rule:nonzero;stroke:none"
             d="M 0,0 C -5.867,5.866 -5.867,11.733 0,17.6 L 26.4,44 c 5.867,5.866 11.733,5.866 17.6,0 L 70.4,17.6 C 76.267,11.733 76.267,5.866 70.4,0 L 44,-26.4 c -5.867,-5.867 -11.733,-5.867 -17.6,0 z" /></g><g
           transform="translate(-38.3999,-9.5996)"
           id="g460"><path
             id="path462"
             style="fill:#000000;fill-opacity:1;fill-rule:nonzero;stroke:none"
             d="M 0,0 C -6.4,6.399 -6.4,12.8 0,19.199 L 28.8,48 c 6.4,6.399 12.8,6.399 19.2,0 L 76.8,19.199 C 83.2,12.8 83.2,6.399 76.8,0 L 48,-28.801 c -6.4,-6.399 -12.8,-6.399 -19.2,0 z" /></g><g
           transform="translate(93.6001,998.3999)"
           id="g464"><path
             id="path466"
             style="fill:#000000;fill-opacity:1;fill-rule:nonzero;stroke:none"
             d="M 0,0 C -1.067,1.067 -1.067,2.133 0,3.2 L 4.8,8 C 5.867,9.067 6.933,9.067 8,8 L 12.8,3.2 C 13.867,2.133 13.867,1.067 12.8,0 L 8,-4.8 c -1.067,-1.067 -2.133,-1.067 -3.2,0 z" /></g><g
           transform="translate(90.3999,897.6001)"
           id="g468"><path
             id="path470"
             style="fill:#000000;fill-opacity:1;fill-rule:nonzero;stroke:none"
             d="M 0,0 C -1.6,1.6 -1.6,3.2 0,4.8 L 7.2,12 c 1.6,1.6 3.2,1.6 4.8,0 L 19.2,4.8 C 20.8,3.2 20.8,1.6 19.2,0 L 12,-7.2 c -1.6,-1.6 -3.2,-1.6 -4.8,0 z" /></g><g
           transform="translate(87.2002,796.7998)"
           id="g472"><path
             id="path474"
             style="fill:#000000;fill-opacity:1;fill-rule:nonzero;stroke:none"
             d="M 0,0 C -2.133,2.134 -2.133,4.267 0,6.4 L 9.6,16 c 2.133,2.134 4.267,2.134 6.4,0 L 25.6,6.4 C 27.733,4.267 27.733,2.134 25.6,0 L 16,-9.6 c -2.133,-2.133 -4.267,-2.133 -6.4,0 z" /></g><g
           transform="translate(84,696)"
           id="g476"><path
             id="path478"
             style="fill:#000000;fill-opacity:1;fill-rule:nonzero;stroke:none"
             d="m 0,0 c -2.667,2.667 -2.667,5.333 0,8 l 12,12 c 2.667,2.667 5.333,2.667 8,0 L 32,8 C 34.667,5.333 34.667,2.667 32,0 L 20,-12 c -2.667,-2.667 -5.333,-2.667 -8,0 z" /></g><g
           transform="translate(80.7998,595.2002)"
           id="g480"><path
             id="path482"
             style="fill:#000000;fill-opacity:1;fill-rule:nonzero;stroke:none"
             d="M 0,0 C -3.2,3.2 -3.2,6.399 0,9.6 L 14.4,24 c 3.2,3.2 6.4,3.2 9.6,0 L 38.4,9.6 C 41.6,6.399 41.6,3.2 38.4,0 L 24,-14.4 c -3.2,-3.201 -6.4,-3.201 -9.6,0 z" /></g><g
           transform="translate(77.6001,494.4004)"
           id="g484"><path
             id="path486"
             style="fill:#000000;fill-opacity:1;fill-rule:nonzero;stroke:none"
             d="M 0,0 C -3.733,3.733 -3.733,7.466 0,11.199 L 16.8,28 c 3.733,3.733 7.467,3.733 11.2,0 L 44.8,11.199 C 48.533,7.466 48.533,3.733 44.8,0 L 28,-16.801 c -3.733,-3.733 -7.467,-3.733 -11.2,0 z" /></g><g
           transform="translate(74.3999,393.5996)"
           id="g488"><path
             id="path490"
             style="fill:#000000;fill-opacity:1;fill-rule:nonzero;stroke:none"
             d="M 0,0 C -4.267,4.267 -4.267,8.534 0,12.801 L 19.2,32 c 4.267,4.267 8.533,4.267 12.8,0 L 51.2,12.801 C 55.467,8.534 55.467,4.267 51.2,0 L 32,-19.199 c -4.267,-4.267 -8.533,-4.267 -12.8,0 z" /></g><g
           transform="translate(71.2002,292.7998)"
           id="g492"><path
             id="path494"
             style="fill:#000000;fill-opacity:1;fill-rule:nonzero;stroke:none"
             d="M 0,0 C -4.8,4.8 -4.8,9.601 0,14.4 L 21.6,36 c 4.8,4.8 9.6,4.8 14.4,0 L 57.6,14.4 C 62.4,9.601 62.4,4.8 57.6,0 L 36,-21.6 c -4.8,-4.799 -9.6,-4.799 -14.4,0 z" /></g><g
           transform="translate(68,192)"
           id="g496"><path
             id="path498"
             style="fill:#000000;fill-opacity:1;fill-rule:nonzero;stroke:none"
             d="m 0,0 c -5.333,5.333 -5.333,10.667 0,16 l 24,24 c 5.333,5.333 10.667,5.333 16,0 L 64,16 C 69.333,10.667 69.333,5.333 64,0 L 40,-24 c -5.333,-5.333 -10.667,-5.333 -16,0 z" /></g><g
           transform="translate(64.7998,91.2002)"
           id="g500"><path
             id="path502"
             style="fill:#000000;fill-opacity:1;fill-rule:nonzero;stroke:none"
             d="M 0,0 C -5.867,5.866 -5.867,11.733 0,17.6 L 26.4,44 c 5.867,5.866 11.733,5.866 17.6,0 L 70.4,17.6 C 76.267,11.733 76.267,5.866 70.4,0 L 44,-26.4 c -5.867,-5.867 -11.733,-5.867 -17.6,0 z" /></g><g
           transform="translate(61.6001,-9.5996)"
           id="g504"><path
             id="path506"
             style="fill:#000000;fill-opacity:1;fill-rule:nonzero;stroke:none"
             d="M 0,0 C -6.4,6.399 -6.4,12.8 0,19.199 L 28.8,48 c 6.4,6.399 12.8,6.399 19.2,0 L 76.8,19.199 C 83.2,12.8 83.2,6.399 76.8,0 L 48,-28.801 c -6.4,-6.399 -12.8,-6.399 -19.2,0 z" /></g><g
           transform="translate(193.6001,998.3999)"
           id="g508"><path
             id="path510"
             style="fill:#000000;fill-opacity:1;fill-rule:nonzero;stroke:none"
             d="M 0,0 C -1.067,1.067 -1.067,2.133 0,3.2 L 4.8,8 C 5.867,9.067 6.933,9.067 8,8 L 12.8,3.2 C 13.867,2.133 13.867,1.067 12.8,0 L 8,-4.8 c -1.067,-1.067 -2.133,-1.067 -3.2,0 z" /></g><g
           transform="translate(190.3999,897.6001)"
           id="g512"><path
             id="path514"
             style="fill:#000000;fill-opacity:1;fill-rule:nonzero;stroke:none"
             d="M 0,0 C -1.6,1.6 -1.6,3.2 0,4.8 L 7.2,12 c 1.6,1.6 3.2,1.6 4.8,0 L 19.2,4.8 C 20.8,3.2 20.8,1.6 19.2,0 L 12,-7.2 c -1.6,-1.6 -3.2,-1.6 -4.8,0 z" /></g><g
           transform="translate(187.2002,796.7998)"
           id="g516"><path
             id="path518"
             style="fill:#000000;fill-opacity:1;fill-rule:nonzero;stroke:none"
             d="M 0,0 C -2.133,2.134 -2.133,4.267 0,6.4 L 9.6,16 c 2.133,2.134 4.267,2.134 6.4,0 L 25.6,6.4 C 27.733,4.267 27.733,2.134 25.6,0 L 16,-9.6 c -2.133,-2.133 -4.267,-2.133 -6.4,0 z" /></g><g
           transform="translate(184,696)"
           id="g520"><path
             id="path522"
             style="fill:#000000;fill-opacity:1;fill-rule:nonzero;stroke:none"
             d="m 0,0 c -2.667,2.667 -2.667,5.333 0,8 l 12,12 c 2.667,2.667 5.333,2.667 8,0 L 32,8 C 34.667,5.333 34.667,2.667 32,0 L 20,-12 c -2.667,-2.667 -5.333,-2.667 -8,0 z" /></g><g
           transform="translate(180.7998,595.2002)"
           id="g524"><path
             id="path526"
             style="fill:#000000;fill-opacity:1;fill-rule:nonzero;stroke:none"
             d="M 0,0 C -3.2,3.2 -3.2,6.399 0,9.6 L 14.4,24 c 3.2,3.2 6.4,3.2 9.6,0 L 38.4,9.6 C 41.6,6.399 41.6,3.2 38.4,0 L 24,-14.4 c -3.2,-3.201 -6.4,-3.201 -9.6,0 z" /></g><g
           transform="translate(177.6001,494.4004)"
           id="g528"><path
             id="path530"
             style="fill:#000000;fill-opacity:1;fill-rule:nonzero;stroke:none"
             d="M 0,0 C -3.733,3.733 -3.733,7.466 0,11.199 L 16.8,28 c 3.733,3.733 7.467,3.733 11.2,0 L 44.8,11.199 C 48.533,7.466 48.533,3.733 44.8,0 L 28,-16.801 c -3.733,-3.733 -7.467,-3.733 -11.2,0 z" /></g><g
           transform="translate(174.3999,393.5996)"
           id="g532"><path
             id="path534"
             style="fill:#000000;fill-opacity:1;fill-rule:nonzero;stroke:none"
             d="M 0,0 C -4.267,4.267 -4.267,8.534 0,12.801 L 19.2,32 c 4.267,4.267 8.533,4.267 12.8,0 L 51.2,12.801 C 55.467,8.534 55.467,4.267 51.2,0 L 32,-19.199 c -4.267,-4.267 -8.533,-4.267 -12.8,0 z" /></g><g
           transform="translate(171.2002,292.7998)"
           id="g536"><path
             id="path538"
             style="fill:#000000;fill-opacity:1;fill-rule:nonzero;stroke:none"
             d="M 0,0 C -4.8,4.8 -4.8,9.601 0,14.4 L 21.6,36 c 4.8,4.8 9.6,4.8 14.4,0 L 57.6,14.4 C 62.4,9.601 62.4,4.8 57.6,0 L 36,-21.6 c -4.8,-4.799 -9.6,-4.799 -14.4,0 z" /></g><g
           transform="translate(168,192)"
           id="g540"><path
             id="path542"
             style="fill:#000000;fill-opacity:1;fill-rule:nonzero;stroke:none"
             d="m 0,0 c -5.333,5.333 -5.333,10.667 0,16 l 24,24 c 5.333,5.333 10.667,5.333 16,0 L 64,16 C 69.333,10.667 69.333,5.333 64,0 L 40,-24 c -5.333,-5.333 -10.667,-5.333 -16,0 z" /></g><g
           transform="translate(164.7998,91.2002)"
           id="g544"><path
             id="path546"
             style="fill:#000000;fill-opacity:1;fill-rule:nonzero;stroke:none"
             d="M 0,0 C -5.867,5.866 -5.867,11.733 0,17.6 L 26.4,44 c 5.867,5.866 11.733,5.866 17.6,0 L 70.4,17.6 C 76.267,11.733 76.267,5.866 70.4,0 L 44,-26.4 c -5.867,-5.867 -11.733,-5.867 -17.6,0 z" /></g><g
           transform="translate(161.6001,-9.5996)"
           id="g548"><path
             id="path550"
             style="fill:#000000;fill-opacity:1;fill-rule:nonzero;stroke:none"
             d="M 0,0 C -6.4,6.399 -6.4,12.8 0,19.199 L 28.8,48 c 6.4,6.399 12.8,6.399 19.2,0 L 76.8,19.199 C 83.2,12.8 83.2,6.399 76.8,0 L 48,-28.801 c -6.4,-6.399 -12.8,-6.399 -19.2,0 z" /></g><g
           transform="translate(293.6001,998.3999)"
           id="g552"><path
             id="path554"
             style="fill:#000000;fill-opacity:1;fill-rule:nonzero;stroke:none"
             d="M 0,0 C -1.067,1.067 -1.067,2.133 0,3.2 L 4.8,8 C 5.867,9.067 6.933,9.067 8,8 L 12.8,3.2 C 13.867,2.133 13.867,1.067 12.8,0 L 8,-4.8 c -1.067,-1.067 -2.133,-1.067 -3.2,0 z" /></g><g
           transform="translate(290.3999,897.6001)"
           id="g556"><path
             id="path558"
             style="fill:#000000;fill-opacity:1;fill-rule:nonzero;stroke:none"
             d="M 0,0 C -1.6,1.6 -1.6,3.2 0,4.8 L 7.2,12 c 1.6,1.6 3.2,1.6 4.8,0 L 19.2,4.8 C 20.8,3.2 20.8,1.6 19.2,0 L 12,-7.2 c -1.6,-1.6 -3.2,-1.6 -4.8,0 z" /></g><g
           transform="translate(287.2002,796.7998)"
           id="g560"><path
             id="path562"
             style="fill:#000000;fill-opacity:1;fill-rule:nonzero;stroke:none"
             d="M 0,0 C -2.133,2.134 -2.133,4.267 0,6.4 L 9.6,16 c 2.133,2.134 4.267,2.134 6.4,0 L 25.6,6.4 C 27.733,4.267 27.733,2.134 25.6,0 L 16,-9.6 c -2.133,-2.133 -4.267,-2.133 -6.4,0 z" /></g><g
           transform="translate(284,696)"
           id="g564"><path
             id="path566"
             style="fill:#000000;fill-opacity:1;fill-rule:nonzero;stroke:none"
             d="m 0,0 c -2.667,2.667 -2.667,5.333 0,8 l 12,12 c 2.667,2.667 5.333,2.667 8,0 L 32,8 C 34.667,5.333 34.667,2.667 32,0 L 20,-12 c -2.667,-2.667 -5.333,-2.667 -8,0 z" /></g><g
           transform="translate(280.7998,595.2002)"
           id="g568"><path
             id="path570"
             style="fill:#000000;fill-opacity:1;fill-rule:nonzero;stroke:none"
             d="M 0,0 C -3.2,3.2 -3.2,6.399 0,9.6 L 14.4,24 c 3.2,3.2 6.4,3.2 9.6,0 L 38.4,9.6 C 41.601,6.399 41.601,3.2 38.4,0 L 24,-14.4 c -3.2,-3.201 -6.4,-3.201 -9.6,0 z" /></g><g
           transform="translate(277.6001,494.4004)"
           id="g572"><path
             id="path574"
             style="fill:#000000;fill-opacity:1;fill-rule:nonzero;stroke:none"
             d="M 0,0 C -3.733,3.733 -3.733,7.466 0,11.199 L 16.8,28 c 3.733,3.733 7.467,3.733 11.2,0 L 44.8,11.199 C 48.534,7.466 48.534,3.733 44.8,0 L 28,-16.801 c -3.733,-3.733 -7.467,-3.733 -11.2,0 z" /></g><g
           transform="translate(274.3999,393.5996)"
           id="g576"><path
             id="path578"
             style="fill:#000000;fill-opacity:1;fill-rule:nonzero;stroke:none"
             d="M 0,0 C -4.267,4.267 -4.267,8.534 0,12.801 L 19.2,32 c 4.267,4.267 8.533,4.267 12.8,0 L 51.2,12.801 C 55.466,8.534 55.466,4.267 51.2,0 L 32,-19.199 c -4.267,-4.267 -8.533,-4.267 -12.8,0 z" /></g><g
           transform="translate(271.2002,292.7998)"
           id="g580"><path
             id="path582"
             style="fill:#000000;fill-opacity:1;fill-rule:nonzero;stroke:none"
             d="M 0,0 C -4.8,4.8 -4.8,9.601 0,14.4 L 21.6,36 c 4.8,4.8 9.6,4.8 14.4,0 L 57.6,14.4 C 62.399,9.601 62.399,4.8 57.6,0 L 36,-21.6 c -4.8,-4.799 -9.6,-4.799 -14.4,0 z" /></g><g
           transform="translate(268,192)"
           id="g584"><path
             id="path586"
             style="fill:#000000;fill-opacity:1;fill-rule:nonzero;stroke:none"
             d="m 0,0 c -5.333,5.333 -5.333,10.667 0,16 l 24,24 c 5.333,5.333 10.667,5.333 16,0 L 64,16 C 69.333,10.667 69.333,5.333 64,0 L 40,-24 c -5.333,-5.333 -10.667,-5.333 -16,0 z" /></g><g
           transform="translate(264.7998,91.2002)"
           id="g588"><path
             id="path590"
             style="fill:#000000;fill-opacity:1;fill-rule:nonzero;stroke:none"
             d="M 0,0 C -5.867,5.866 -5.867,11.733 0,17.6 L 26.4,44 c 5.867,5.866 11.733,5.866 17.6,0 L 70.4,17.6 C 76.267,11.733 76.267,5.866 70.4,0 L 44,-26.4 c -5.867,-5.867 -11.733,-5.867 -17.6,0 z" /></g><g
           transform="translate(261.6001,-9.5996)"
           id="g592"><path
             id="path594"
             style="fill:#000000;fill-opacity:1;fill-rule:nonzero;stroke:none"
             d="M 0,0 C -6.4,6.399 -6.4,12.8 0,19.199 L 28.8,48 c 6.4,6.399 12.8,6.399 19.2,0 L 76.8,19.199 C 83.2,12.8 83.2,6.399 76.8,0 L 48,-28.801 c -6.4,-6.399 -12.8,-6.399 -19.2,0 z" /></g><g
           transform="translate(393.5996,998.3999)"
           id="g596"><path
             id="path598"
             style="fill:#000000;fill-opacity:1;fill-rule:nonzero;stroke:none"
             d="M 0,0 C -1.066,1.067 -1.066,2.133 0,3.2 L 4.801,8 C 5.867,9.067 6.934,9.067 8,8 l 4.801,-4.8 c 1.066,-1.067 1.066,-2.133 0,-3.2 L 8,-4.8 c -1.066,-1.067 -2.133,-1.067 -3.199,0 z" /></g><g
           transform="translate(390.4004,897.6001)"
           id="g600"><path
             id="path602"
             style="fill:#000000;fill-opacity:1;fill-rule:nonzero;stroke:none"
             d="M 0,0 C -1.601,1.6 -1.601,3.2 0,4.8 L 7.199,12 c 1.601,1.6 3.2,1.6 4.801,0 L 19.199,4.8 C 20.8,3.2 20.8,1.6 19.199,0 L 12,-7.2 c -1.601,-1.6 -3.2,-1.6 -4.801,0 z" /></g><g
           transform="translate(387.2002,796.7998)"
           id="g604"><path
             id="path606"
             style="fill:#000000;fill-opacity:1;fill-rule:nonzero;stroke:none"
             d="M 0,0 C -2.134,2.134 -2.134,4.267 0,6.4 L 9.6,16 c 2.133,2.134 4.266,2.134 6.4,0 L 25.6,6.4 C 27.733,4.267 27.733,2.134 25.6,0 L 16,-9.6 c -2.134,-2.133 -4.267,-2.133 -6.4,0 z" /></g><g
           transform="translate(384,696)"
           id="g608"><path
             id="path610"
             style="fill:#000000;fill-opacity:1;fill-rule:nonzero;stroke:none"
             d="m 0,0 c -2.667,2.667 -2.667,5.333 0,8 l 12,12 c 2.667,2.667 5.333,2.667 8,0 L 32,8 C 34.667,5.333 34.667,2.667 32,0 L 20,-12 c -2.667,-2.667 -5.333,-2.667 -8,0 z" /></g><g
           transform="translate(380.7998,595.2002)"
           id="g612"><path
             id="path614"
             style="fill:#000000;fill-opacity:1;fill-rule:nonzero;stroke:none"
             d="M 0,0 C -3.2,3.2 -3.2,6.399 0,9.6 L 14.4,24 c 3.201,3.2 6.4,3.2 9.6,0 L 38.4,9.6 C 41.601,6.399 41.601,3.2 38.4,0 L 24,-14.4 c -3.2,-3.201 -6.399,-3.201 -9.6,0 z" /></g><g
           transform="translate(377.5996,494.4004)"
           id="g616"><path
             id="path618"
             style="fill:#000000;fill-opacity:1;fill-rule:nonzero;stroke:none"
             d="M 0,0 C -3.733,3.733 -3.733,7.466 0,11.199 L 16.801,28 c 3.733,3.733 7.466,3.733 11.199,0 L 44.801,11.199 C 48.534,7.466 48.534,3.733 44.801,0 L 28,-16.801 c -3.733,-3.733 -7.466,-3.733 -11.199,0 z" /></g><g
           transform="translate(374.4004,393.5996)"
           id="g620"><path
             id="path622"
             style="fill:#000000;fill-opacity:1;fill-rule:nonzero;stroke:none"
             d="M 0,0 C -4.267,4.267 -4.267,8.534 0,12.801 L 19.199,32 c 4.267,4.267 8.534,4.267 12.801,0 L 51.199,12.801 C 55.466,8.534 55.466,4.267 51.199,0 L 32,-19.199 c -4.267,-4.267 -8.534,-4.267 -12.801,0 z" /></g><g
           transform="translate(371.2002,292.7998)"
           id="g624"><path
             id="path626"
             style="fill:#000000;fill-opacity:1;fill-rule:nonzero;stroke:none"
             d="M 0,0 C -4.8,4.8 -4.8,9.601 0,14.4 L 21.6,36 c 4.799,4.8 9.6,4.8 14.4,0 L 57.6,14.4 C 62.399,9.601 62.399,4.8 57.6,0 L 36,-21.6 c -4.8,-4.799 -9.601,-4.799 -14.4,0 z" /></g><g
           transform="translate(368,192)"
           id="g628"><path
             id="path630"
             style="fill:#000000;fill-opacity:1;fill-rule:nonzero;stroke:none"
             d="m 0,0 c -5.333,5.333 -5.333,10.667 0,16 l 24,24 c 5.333,5.333 10.667,5.333 16,0 L 64,16 C 69.333,10.667 69.333,5.333 64,0 L 40,-24 c -5.333,-5.333 -10.667,-5.333 -16,0 z" /></g><g
           transform="translate(364.7998,91.2002)"
           id="g632"><path
             id="path634"
             style="fill:#000000;fill-opacity:1;fill-rule:nonzero;stroke:none"
             d="M 0,0 C -5.866,5.866 -5.866,11.733 0,17.6 L 26.4,44 c 5.867,5.866 11.734,5.866 17.6,0 L 70.4,17.6 C 76.267,11.733 76.267,5.866 70.4,0 L 44,-26.4 c -5.866,-5.867 -11.733,-5.867 -17.6,0 z" /></g><g
           transform="translate(361.5996,-9.5996)"
           id="g636"><path
             id="path638"
             style="fill:#000000;fill-opacity:1;fill-rule:nonzero;stroke:none"
             d="M 0,0 C -6.399,6.399 -6.399,12.8 0,19.199 L 28.801,48 C 35.2,54.399 41.601,54.399 48,48 L 76.801,19.199 C 83.2,12.8 83.2,6.399 76.801,0 L 48,-28.801 c -6.399,-6.399 -12.8,-6.399 -19.199,0 z" /></g><g
           transform="translate(493.5996,998.3999)"
           id="g640"><path
             id="path642"
             style="fill:#000000;fill-opacity:1;fill-rule:nonzero;stroke:none"
             d="M 0,0 C -1.066,1.067 -1.066,2.133 0,3.2 L 4.801,8 C 5.867,9.067 6.934,9.067 8,8 l 4.801,-4.8 c 1.066,-1.067 1.066,-2.133 0,-3.2 L 8,-4.8 c -1.066,-1.067 -2.133,-1.067 -3.199,0 z" /></g><g
           transform="translate(490.4004,897.6001)"
           id="g644"><path
             id="path646"
             style="fill:#000000;fill-opacity:1;fill-rule:nonzero;stroke:none"
             d="M 0,0 C -1.601,1.6 -1.601,3.2 0,4.8 L 7.199,12 c 1.601,1.6 3.2,1.6 4.801,0 L 19.199,4.8 C 20.8,3.2 20.8,1.6 19.199,0 L 12,-7.2 c -1.601,-1.6 -3.2,-1.6 -4.801,0 z" /></g><g
           transform="translate(487.2002,796.7998)"
           id="g648"><path
             id="path650"
             style="fill:#000000;fill-opacity:1;fill-rule:nonzero;stroke:none"
             d="M 0,0 C -2.134,2.134 -2.134,4.267 0,6.4 L 9.6,16 c 2.133,2.134 4.266,2.134 6.4,0 L 25.6,6.4 C 27.733,4.267 27.733,2.134 25.6,0 L 16,-9.6 c -2.134,-2.133 -4.267,-2.133 -6.4,0 z" /></g><g
           transform="translate(484,696)"
           id="g652"><path
             id="path654"
             style="fill:#000000;fill-opacity:1;fill-rule:nonzero;stroke:none"
             d="m 0,0 c -2.667,2.667 -2.667,5.333 0,8 l 12,12 c 2.667,2.667 5.333,2.667 8,0 L 32,8 C 34.667,5.333 34.667,2.667 32,0 L 20,-12 c -2.667,-2.667 -5.333,-2.667 -8,0 z" /></g><g
           transform="translate(480.7998,595.2002)"
           id="g656"><path
             id="path658"
             style="fill:#000000;fill-opacity:1;fill-rule:nonzero;stroke:none"
             d="M 0,0 C -3.2,3.2 -3.2,6.399 0,9.6 L 14.4,24 c 3.201,3.2 6.4,3.2 9.6,0 L 38.4,9.6 C 41.601,6.399 41.601,3.2 38.4,0 L 24,-14.4 c -3.2,-3.201 -6.399,-3.201 -9.6,0 z" /></g><g
           transform="translate(477.5996,494.4004)"
           id="g660"><path
             id="path662"
             style="fill:#000000;fill-opacity:1;fill-rule:nonzero;stroke:none"
             d="M 0,0 C -3.733,3.733 -3.733,7.466 0,11.199 L 16.801,28 c 3.733,3.733 7.466,3.733 11.199,0 L 44.801,11.199 C 48.534,7.466 48.534,3.733 44.801,0 L 28,-16.801 c -3.733,-3.733 -7.466,-3.733 -11.199,0 z" /></g><g
           transform="translate(474.4004,393.5996)"
           id="g664"><path
             id="path666"
             style="fill:#000000;fill-opacity:1;fill-rule:nonzero;stroke:none"
             d="M 0,0 C -4.267,4.267 -4.267,8.534 0,12.801 L 19.199,32 c 4.267,4.267 8.534,4.267 12.801,0 L 51.199,12.801 C 55.466,8.534 55.466,4.267 51.199,0 L 32,-19.199 c -4.267,-4.267 -8.534,-4.267 -12.801,0 z" /></g><g
           transform="translate(471.2002,292.7998)"
           id="g668"><path
             id="path670"
             style="fill:#000000;fill-opacity:1;fill-rule:nonzero;stroke:none"
             d="M 0,0 C -4.8,4.8 -4.8,9.601 0,14.4 L 21.6,36 c 4.799,4.8 9.6,4.8 14.4,0 L 57.6,14.4 C 62.399,9.601 62.399,4.8 57.6,0 L 36,-21.6 c -4.8,-4.799 -9.601,-4.799 -14.4,0 z" /></g><g
           transform="translate(468,192)"
           id="g672"><path
             id="path674"
             style="fill:#000000;fill-opacity:1;fill-rule:nonzero;stroke:none"
             d="m 0,0 c -5.333,5.333 -5.333,10.667 0,16 l 24,24 c 5.333,5.333 10.667,5.333 16,0 L 64,16 C 69.333,10.667 69.333,5.333 64,0 L 40,-24 c -5.333,-5.333 -10.667,-5.333 -16,0 z" /></g><g
           transform="translate(464.7998,91.2002)"
           id="g676"><path
             id="path678"
             style="fill:#000000;fill-opacity:1;fill-rule:nonzero;stroke:none"
             d="M 0,0 C -5.866,5.866 -5.866,11.733 0,17.6 L 26.4,44 c 5.867,5.866 11.734,5.866 17.6,0 L 70.4,17.6 C 76.267,11.733 76.267,5.866 70.4,0 L 44,-26.4 c -5.866,-5.867 -11.733,-5.867 -17.6,0 z" /></g><g
           transform="translate(461.5996,-9.5996)"
           id="g680"><path
             id="path682"
             style="fill:#000000;fill-opacity:1;fill-rule:nonzero;stroke:none"
             d="M 0,0 C -6.399,6.399 -6.399,12.8 0,19.199 L 28.801,48 C 35.2,54.399 41.601,54.399 48,48 L 76.801,19.199 C 83.2,12.8 83.2,6.399 76.801,0 L 48,-28.801 c -6.399,-6.399 -12.8,-6.399 -19.199,0 z" /></g><g
           transform="translate(593.5996,998.3999)"
           id="g684"><path
             id="path686"
             style="fill:#000000;fill-opacity:1;fill-rule:nonzero;stroke:none"
             d="M 0,0 C -1.066,1.067 -1.066,2.133 0,3.2 L 4.801,8 C 5.867,9.067 6.934,9.067 8,8 l 4.801,-4.8 c 1.066,-1.067 1.066,-2.133 0,-3.2 L 8,-4.8 c -1.066,-1.067 -2.133,-1.067 -3.199,0 z" /></g><g
           transform="translate(590.4004,897.6001)"
           id="g688"><path
             id="path690"
             style="fill:#000000;fill-opacity:1;fill-rule:nonzero;stroke:none"
             d="M 0,0 C -1.601,1.6 -1.601,3.2 0,4.8 L 7.199,12 c 1.601,1.6 3.2,1.6 4.801,0 L 19.199,4.8 C 20.8,3.2 20.8,1.6 19.199,0 L 12,-7.2 c -1.601,-1.6 -3.2,-1.6 -4.801,0 z" /></g><g
           transform="translate(587.2002,796.7998)"
           id="g692"><path
             id="path694"
             style="fill:#000000;fill-opacity:1;fill-rule:nonzero;stroke:none"
             d="M 0,0 C -2.134,2.134 -2.134,4.267 0,6.4 L 9.6,16 c 2.133,2.134 4.266,2.134 6.4,0 L 25.6,6.4 C 27.733,4.267 27.733,2.134 25.6,0 L 16,-9.6 c -2.134,-2.133 -4.267,-2.133 -6.4,0 z" /></g><g
           transform="translate(584,696)"
           id="g696"><path
             id="path698"
             style="fill:#000000;fill-opacity:1;fill-rule:nonzero;stroke:none"
             d="m 0,0 c -2.667,2.667 -2.667,5.333 0,8 l 12,12 c 2.667,2.667 5.333,2.667 8,0 L 32,8 C 34.667,5.333 34.667,2.667 32,0 L 20,-12 c -2.667,-2.667 -5.333,-2.667 -8,0 z" /></g><g
           transform="translate(580.7998,595.2002)"
           id="g700"><path
             id="path702"
             style="fill:#000000;fill-opacity:1;fill-rule:nonzero;stroke:none"
             d="M 0,0 C -3.2,3.2 -3.2,6.399 0,9.6 L 14.4,24 c 3.201,3.2 6.4,3.2 9.6,0 L 38.4,9.6 C 41.601,6.399 41.601,3.2 38.4,0 L 24,-14.4 c -3.2,-3.201 -6.399,-3.201 -9.6,0 z" /></g><g
           transform="translate(577.5996,494.4004)"
           id="g704"><path
             id="path706"
             style="fill:#000000;fill-opacity:1;fill-rule:nonzero;stroke:none"
             d="M 0,0 C -3.733,3.733 -3.733,7.466 0,11.199 L 16.801,28 c 3.733,3.733 7.466,3.733 11.199,0 L 44.801,11.199 C 48.534,7.466 48.534,3.733 44.801,0 L 28,-16.801 c -3.733,-3.733 -7.466,-3.733 -11.199,0 z" /></g><g
           transform="translate(574.4004,393.5996)"
           id="g708"><path
             id="path710"
             style="fill:#000000;fill-opacity:1;fill-rule:nonzero;stroke:none"
             d="M 0,0 C -4.267,4.267 -4.267,8.534 0,12.801 L 19.199,32 c 4.267,4.267 8.534,4.267 12.801,0 L 51.199,12.801 C 55.466,8.534 55.466,4.267 51.199,0 L 32,-19.199 c -4.267,-4.267 -8.534,-4.267 -12.801,0 z" /></g><g
           transform="translate(571.2002,292.7998)"
           id="g712"><path
             id="path714"
             style="fill:#000000;fill-opacity:1;fill-rule:nonzero;stroke:none"
             d="M 0,0 C -4.8,4.8 -4.8,9.601 0,14.4 L 21.6,36 c 4.799,4.8 9.6,4.8 14.4,0 L 57.6,14.4 C 62.399,9.601 62.399,4.8 57.6,0 L 36,-21.6 c -4.8,-4.799 -9.601,-4.799 -14.4,0 z" /></g><g
           transform="translate(568,192)"
           id="g716"><path
             id="path718"
             style="fill:#000000;fill-opacity:1;fill-rule:nonzero;stroke:none"
             d="m 0,0 c -5.333,5.333 -5.333,10.667 0,16 l 24,24 c 5.333,5.333 10.667,5.333 16,0 L 64,16 C 69.333,10.667 69.333,5.333 64,0 L 40,-24 c -5.333,-5.333 -10.667,-5.333 -16,0 z" /></g><g
           transform="translate(564.7998,91.2002)"
           id="g720"><path
             id="path722"
             style="fill:#000000;fill-opacity:1;fill-rule:nonzero;stroke:none"
             d="M 0,0 C -5.866,5.866 -5.866,11.733 0,17.6 L 26.4,44 c 5.867,5.866 11.734,5.866 17.6,0 L 70.4,17.6 C 76.267,11.733 76.267,5.866 70.4,0 L 44,-26.4 c -5.866,-5.867 -11.733,-5.867 -17.6,0 z" /></g><g
           transform="translate(561.5996,-9.5996)"
           id="g724"><path
             id="path726"
             style="fill:#000000;fill-opacity:1;fill-rule:nonzero;stroke:none"
             d="M 0,0 C -6.399,6.399 -6.399,12.8 0,19.199 L 28.801,48 C 35.2,54.399 41.601,54.399 48,48 L 76.801,19.199 C 83.2,12.8 83.2,6.399 76.801,0 L 48,-28.801 c -6.399,-6.399 -12.8,-6.399 -19.199,0 z" /></g><g
           transform="translate(693.5996,998.3999)"
           id="g728"><path
             id="path730"
             style="fill:#000000;fill-opacity:1;fill-rule:nonzero;stroke:none"
             d="M 0,0 C -1.066,1.067 -1.066,2.133 0,3.2 L 4.801,8 C 5.867,9.067 6.934,9.067 8,8 l 4.801,-4.8 c 1.066,-1.067 1.066,-2.133 0,-3.2 L 8,-4.8 c -1.066,-1.067 -2.133,-1.067 -3.199,0 z" /></g><g
           transform="translate(690.4004,897.6001)"
           id="g732"><path
             id="path734"
             style="fill:#000000;fill-opacity:1;fill-rule:nonzero;stroke:none"
             d="M 0,0 C -1.601,1.6 -1.601,3.2 0,4.8 L 7.199,12 c 1.601,1.6 3.2,1.6 4.801,0 L 19.199,4.8 C 20.8,3.2 20.8,1.6 19.199,0 L 12,-7.2 c -1.601,-1.6 -3.2,-1.6 -4.801,0 z" /></g><g
           transform="translate(687.2002,796.7998)"
           id="g736"><path
             id="path738"
             style="fill:#000000;fill-opacity:1;fill-rule:nonzero;stroke:none"
             d="M 0,0 C -2.134,2.134 -2.134,4.267 0,6.4 L 9.6,16 c 2.133,2.134 4.266,2.134 6.4,0 L 25.6,6.4 C 27.733,4.267 27.733,2.134 25.6,0 L 16,-9.6 c -2.134,-2.133 -4.267,-2.133 -6.4,0 z" /></g><g
           transform="translate(684,696)"
           id="g740"><path
             id="path742"
             style="fill:#000000;fill-opacity:1;fill-rule:nonzero;stroke:none"
             d="m 0,0 c -2.667,2.667 -2.667,5.333 0,8 l 12,12 c 2.667,2.667 5.333,2.667 8,0 L 32,8 C 34.667,5.333 34.667,2.667 32,0 L 20,-12 c -2.667,-2.667 -5.333,-2.667 -8,0 z" /></g><g
           transform="translate(680.7998,595.2002)"
           id="g744"><path
             id="path746"
             style="fill:#000000;fill-opacity:1;fill-rule:nonzero;stroke:none"
             d="M 0,0 C -3.2,3.2 -3.2,6.399 0,9.6 L 14.4,24 c 3.201,3.2 6.4,3.2 9.6,0 L 38.4,9.6 C 41.601,6.399 41.601,3.2 38.4,0 L 24,-14.4 c -3.2,-3.201 -6.399,-3.201 -9.6,0 z" /></g><g
           transform="translate(677.5996,494.4004)"
           id="g748"><path
             id="path750"
             style="fill:#000000;fill-opacity:1;fill-rule:nonzero;stroke:none"
             d="M 0,0 C -3.733,3.733 -3.733,7.466 0,11.199 L 16.801,28 c 3.733,3.733 7.466,3.733 11.199,0 L 44.801,11.199 C 48.534,7.466 48.534,3.733 44.801,0 L 28,-16.801 c -3.733,-3.733 -7.466,-3.733 -11.199,0 z" /></g><g
           transform="translate(674.4004,393.5996)"
           id="g752"><path
             id="path754"
             style="fill:#000000;fill-opacity:1;fill-rule:nonzero;stroke:none"
             d="M 0,0 C -4.267,4.267 -4.267,8.534 0,12.801 L 19.199,32 c 4.267,4.267 8.534,4.267 12.801,0 L 51.199,12.801 C 55.466,8.534 55.466,4.267 51.199,0 L 32,-19.199 c -4.267,-4.267 -8.534,-4.267 -12.801,0 z" /></g><g
           transform="translate(671.2002,292.7998)"
           id="g756"><path
             id="path758"
             style="fill:#000000;fill-opacity:1;fill-rule:nonzero;stroke:none"
             d="M 0,0 C -4.8,4.8 -4.8,9.601 0,14.4 L 21.6,36 c 4.799,4.8 9.6,4.8 14.4,0 L 57.6,14.4 C 62.399,9.601 62.399,4.8 57.6,0 L 36,-21.6 c -4.8,-4.799 -9.601,-4.799 -14.4,0 z" /></g><g
           transform="translate(668,192)"
           id="g760"><path
             id="path762"
             style="fill:#000000;fill-opacity:1;fill-rule:nonzero;stroke:none"
             d="m 0,0 c -5.333,5.333 -5.333,10.667 0,16 l 24,24 c 5.333,5.333 10.667,5.333 16,0 L 64,16 C 69.333,10.667 69.333,5.333 64,0 L 40,-24 c -5.333,-5.333 -10.667,-5.333 -16,0 z" /></g><g
           transform="translate(664.7998,91.2002)"
           id="g764"><path
             id="path766"
             style="fill:#000000;fill-opacity:1;fill-rule:nonzero;stroke:none"
             d="M 0,0 C -5.866,5.866 -5.866,11.733 0,17.6 L 26.4,44 c 5.867,5.866 11.734,5.866 17.6,0 L 70.4,17.6 C 76.267,11.733 76.267,5.866 70.4,0 L 44,-26.4 c -5.866,-5.867 -11.733,-5.867 -17.6,0 z" /></g><g
           transform="translate(661.5996,-9.5996)"
           id="g768"><path
             id="path770"
             style="fill:#000000;fill-opacity:1;fill-rule:nonzero;stroke:none"
             d="M 0,0 C -6.399,6.399 -6.399,12.8 0,19.199 L 28.801,48 C 35.2,54.399 41.601,54.399 48,48 L 76.801,19.199 C 83.2,12.8 83.2,6.399 76.801,0 L 48,-28.801 c -6.399,-6.399 -12.8,-6.399 -19.199,0 z" /></g><g
           transform="translate(793.5996,998.3999)"
           id="g772"><path
             id="path774"
             style="fill:#000000;fill-opacity:1;fill-rule:nonzero;stroke:none"
             d="M 0,0 C -1.066,1.067 -1.066,2.133 0,3.2 L 4.801,8 C 5.867,9.067 6.934,9.067 8,8 l 4.801,-4.8 c 1.066,-1.067 1.066,-2.133 0,-3.2 L 8,-4.8 c -1.066,-1.067 -2.133,-1.067 -3.199,0 z" /></g><g
           transform="translate(790.4004,897.6001)"
           id="g776"><path
             id="path778"
             style="fill:#000000;fill-opacity:1;fill-rule:nonzero;stroke:none"
             d="M 0,0 C -1.601,1.6 -1.601,3.2 0,4.8 L 7.199,12 c 1.601,1.6 3.2,1.6 4.801,0 L 19.199,4.8 C 20.8,3.2 20.8,1.6 19.199,0 L 12,-7.2 c -1.601,-1.6 -3.2,-1.6 -4.801,0 z" /></g><g
           transform="translate(787.2002,796.7998)"
           id="g780"><path
             id="path782"
             style="fill:#000000;fill-opacity:1;fill-rule:nonzero;stroke:none"
             d="M 0,0 C -2.134,2.134 -2.134,4.267 0,6.4 L 9.6,16 c 2.133,2.134 4.266,2.134 6.4,0 L 25.6,6.4 C 27.733,4.267 27.733,2.134 25.6,0 L 16,-9.6 c -2.134,-2.133 -4.267,-2.133 -6.4,0 z" /></g><g
           transform="translate(784,696)"
           id="g784"><path
             id="path786"
             style="fill:#000000;fill-opacity:1;fill-rule:nonzero;stroke:none"
             d="m 0,0 c -2.667,2.667 -2.667,5.333 0,8 l 12,12 c 2.667,2.667 5.333,2.667 8,0 L 32,8 C 34.667,5.333 34.667,2.667 32,0 L 20,-12 c -2.667,-2.667 -5.333,-2.667 -8,0 z" /></g><g
           transform="translate(780.7998,595.2002)"
           id="g788"><path
             id="path790"
             style="fill:#000000;fill-opacity:1;fill-rule:nonzero;stroke:none"
             d="M 0,0 C -3.2,3.2 -3.2,6.399 0,9.6 L 14.4,24 c 3.201,3.2 6.4,3.2 9.6,0 L 38.4,9.6 C 41.601,6.399 41.601,3.2 38.4,0 L 24,-14.4 c -3.2,-3.201 -6.399,-3.201 -9.6,0 z" /></g><g
           transform="translate(777.5996,494.4004)"
           id="g792"><path
             id="path794"
             style="fill:#000000;fill-opacity:1;fill-rule:nonzero;stroke:none"
             d="M 0,0 C -3.733,3.733 -3.733,7.466 0,11.199 L 16.801,28 c 3.733,3.733 7.466,3.733 11.199,0 L 44.801,11.199 C 48.534,7.466 48.534,3.733 44.801,0 L 28,-16.801 c -3.733,-3.733 -7.466,-3.733 -11.199,0 z" /></g><g
           transform="translate(774.4004,393.5996)"
           id="g796"><path
             id="path798"
             style="fill:#000000;fill-opacity:1;fill-rule:nonzero;stroke:none"
             d="M 0,0 C -4.267,4.267 -4.267,8.534 0,12.801 L 19.199,32 c 4.267,4.267 8.534,4.267 12.801,0 L 51.199,12.801 C 55.466,8.534 55.466,4.267 51.199,0 L 32,-19.199 c -4.267,-4.267 -8.534,-4.267 -12.801,0 z" /></g><g
           transform="translate(771.2002,292.7998)"
           id="g800"><path
             id="path802"
             style="fill:#000000;fill-opacity:1;fill-rule:nonzero;stroke:none"
             d="M 0,0 C -4.8,4.8 -4.8,9.601 0,14.4 L 21.6,36 c 4.799,4.8 9.6,4.8 14.4,0 L 57.6,14.4 C 62.399,9.601 62.399,4.8 57.6,0 L 36,-21.6 c -4.8,-4.799 -9.601,-4.799 -14.4,0 z" /></g><g
           transform="translate(768,192)"
           id="g804"><path
             id="path806"
             style="fill:#000000;fill-opacity:1;fill-rule:nonzero;stroke:none"
             d="m 0,0 c -5.333,5.333 -5.333,10.667 0,16 l 24,24 c 5.333,5.333 10.667,5.333 16,0 L 64,16 C 69.333,10.667 69.333,5.333 64,0 L 40,-24 c -5.333,-5.333 -10.667,-5.333 -16,0 z" /></g><g
           transform="translate(764.7998,91.2002)"
           id="g808"><path
             id="path810"
             style="fill:#000000;fill-opacity:1;fill-rule:nonzero;stroke:none"
             d="M 0,0 C -5.866,5.866 -5.866,11.733 0,17.6 L 26.4,44 c 5.867,5.866 11.734,5.866 17.6,0 L 70.4,17.6 C 76.267,11.733 76.267,5.866 70.4,0 L 44,-26.4 c -5.866,-5.867 -11.733,-5.867 -17.6,0 z" /></g><g
           transform="translate(761.5996,-9.5996)"
           id="g812"><path
             id="path814"
             style="fill:#000000;fill-opacity:1;fill-rule:nonzero;stroke:none"
             d="M 0,0 C -6.399,6.399 -6.399,12.8 0,19.199 L 28.801,48 C 35.2,54.399 41.601,54.399 48,48 L 76.801,19.199 C 83.2,12.8 83.2,6.399 76.801,0 L 48,-28.801 c -6.399,-6.399 -12.8,-6.399 -19.199,0 z" /></g><g
           transform="translate(893.5996,998.3999)"
           id="g816"><path
             id="path818"
             style="fill:#000000;fill-opacity:1;fill-rule:nonzero;stroke:none"
             d="M 0,0 C -1.066,1.067 -1.066,2.133 0,3.2 L 4.801,8 C 5.867,9.067 6.934,9.067 8,8 l 4.801,-4.8 c 1.066,-1.067 1.066,-2.133 0,-3.2 L 8,-4.8 c -1.066,-1.067 -2.133,-1.067 -3.199,0 z" /></g><g
           transform="translate(890.4004,897.6001)"
           id="g820"><path
             id="path822"
             style="fill:#000000;fill-opacity:1;fill-rule:nonzero;stroke:none"
             d="M 0,0 C -1.601,1.6 -1.601,3.2 0,4.8 L 7.199,12 c 1.601,1.6 3.2,1.6 4.801,0 L 19.199,4.8 C 20.8,3.2 20.8,1.6 19.199,0 L 12,-7.2 c -1.601,-1.6 -3.2,-1.6 -4.801,0 z" /></g><g
           transform="translate(887.2002,796.7998)"
           id="g824"><path
             id="path826"
             style="fill:#000000;fill-opacity:1;fill-rule:nonzero;stroke:none"
             d="M 0,0 C -2.134,2.134 -2.134,4.267 0,6.4 L 9.6,16 c 2.133,2.134 4.266,2.134 6.4,0 L 25.6,6.4 C 27.733,4.267 27.733,2.134 25.6,0 L 16,-9.6 c -2.134,-2.133 -4.267,-2.133 -6.4,0 z" /></g><g
           transform="translate(884,696)"
           id="g828"><path
             id="path830"
             style="fill:#000000;fill-opacity:1;fill-rule:nonzero;stroke:none"
             d="m 0,0 c -2.667,2.667 -2.667,5.333 0,8 l 12,12 c 2.667,2.667 5.333,2.667 8,0 L 32,8 C 34.667,5.333 34.667,2.667 32,0 L 20,-12 c -2.667,-2.667 -5.333,-2.667 -8,0 z" /></g><g
           transform="translate(880.7998,595.2002)"
           id="g832"><path
             id="path834"
             style="fill:#000000;fill-opacity:1;fill-rule:nonzero;stroke:none"
             d="M 0,0 C -3.2,3.2 -3.2,6.399 0,9.6 L 14.4,24 c 3.201,3.2 6.4,3.2 9.6,0 L 38.4,9.6 C 41.601,6.399 41.601,3.2 38.4,0 L 24,-14.4 c -3.2,-3.201 -6.399,-3.201 -9.6,0 z" /></g><g
           transform="translate(877.5996,494.4004)"
           id="g836"><path
             id="path838"
             style="fill:#000000;fill-opacity:1;fill-rule:nonzero;stroke:none"
             d="M 0,0 C -3.733,3.733 -3.733,7.466 0,11.199 L 16.801,28 c 3.733,3.733 7.466,3.733 11.199,0 L 44.801,11.199 C 48.534,7.466 48.534,3.733 44.801,0 L 28,-16.801 c -3.733,-3.733 -7.466,-3.733 -11.199,0 z" /></g><g
           transform="translate(874.4004,393.5996)"
           id="g840"><path
             id="path842"
             style="fill:#000000;fill-opacity:1;fill-rule:nonzero;stroke:none"
             d="M 0,0 C -4.267,4.267 -4.267,8.534 0,12.801 L 19.199,32 c 4.267,4.267 8.534,4.267 12.801,0 L 51.199,12.801 C 55.466,8.534 55.466,4.267 51.199,0 L 32,-19.199 c -4.267,-4.267 -8.534,-4.267 -12.801,0 z" /></g><g
           transform="translate(871.2002,292.7998)"
           id="g844"><path
             id="path846"
             style="fill:#000000;fill-opacity:1;fill-rule:nonzero;stroke:none"
             d="M 0,0 C -4.8,4.8 -4.8,9.601 0,14.4 L 21.6,36 c 4.799,4.8 9.6,4.8 14.4,0 L 57.6,14.4 C 62.399,9.601 62.399,4.8 57.6,0 L 36,-21.6 c -4.8,-4.799 -9.601,-4.799 -14.4,0 z" /></g><g
           transform="translate(868,192)"
           id="g848"><path
             id="path850"
             style="fill:#000000;fill-opacity:1;fill-rule:nonzero;stroke:none"
             d="m 0,0 c -5.333,5.333 -5.333,10.667 0,16 l 24,24 c 5.333,5.333 10.667,5.333 16,0 L 64,16 C 69.333,10.667 69.333,5.333 64,0 L 40,-24 c -5.333,-5.333 -10.667,-5.333 -16,0 z" /></g><g
           transform="translate(864.7998,91.2002)"
           id="g852"><path
             id="path854"
             style="fill:#000000;fill-opacity:1;fill-rule:nonzero;stroke:none"
             d="M 0,0 C -5.866,5.866 -5.866,11.733 0,17.6 L 26.4,44 c 5.867,5.866 11.734,5.866 17.6,0 L 70.4,17.6 C 76.267,11.733 76.267,5.866 70.4,0 L 44,-26.4 c -5.866,-5.867 -11.733,-5.867 -17.6,0 z" /></g><g
           transform="translate(861.5996,-9.5996)"
           id="g856"><path
             id="path858"
             style="fill:#000000;fill-opacity:1;fill-rule:nonzero;stroke:none"
             d="M 0,0 C -6.399,6.399 -6.399,12.8 0,19.199 L 28.801,48 C 35.2,54.399 41.601,54.399 48,48 L 76.801,19.199 C 83.2,12.8 83.2,6.399 76.801,0 L 48,-28.801 c -6.399,-6.399 -12.8,-6.399 -19.199,0 z" /></g><g
           transform="translate(993.5996,998.3999)"
           id="g860"><path
             id="path862"
             style="fill:#000000;fill-opacity:1;fill-rule:nonzero;stroke:none"
             d="M 0,0 C -1.066,1.067 -1.066,2.133 0,3.2 L 4.801,8 C 5.867,9.067 6.934,9.067 8,8 l 4.801,-4.8 c 1.066,-1.067 1.066,-2.133 0,-3.2 L 8,-4.8 c -1.066,-1.067 -2.133,-1.067 -3.199,0 z" /></g><g
           transform="translate(990.4004,897.6001)"
           id="g864"><path
             id="path866"
             style="fill:#000000;fill-opacity:1;fill-rule:nonzero;stroke:none"
             d="M 0,0 C -1.601,1.6 -1.601,3.2 0,4.8 L 7.199,12 c 1.601,1.6 3.2,1.6 4.801,0 L 19.199,4.8 C 20.8,3.2 20.8,1.6 19.199,0 L 12,-7.2 c -1.601,-1.6 -3.2,-1.6 -4.801,0 z" /></g><g
           transform="translate(987.2002,796.7998)"
           id="g868"><path
             id="path870"
             style="fill:#000000;fill-opacity:1;fill-rule:nonzero;stroke:none"
             d="M 0,0 C -2.134,2.134 -2.134,4.267 0,6.4 L 9.6,16 c 2.133,2.134 4.266,2.134 6.4,0 L 25.6,6.4 C 27.733,4.267 27.733,2.134 25.6,0 L 16,-9.6 c -2.134,-2.133 -4.267,-2.133 -6.4,0 z" /></g><g
           transform="translate(984,696)"
           id="g872"><path
             id="path874"
             style="fill:#000000;fill-opacity:1;fill-rule:nonzero;stroke:none"
             d="m 0,0 c -2.667,2.667 -2.667,5.333 0,8 l 12,12 c 2.667,2.667 5.333,2.667 8,0 L 32,8 C 34.667,5.333 34.667,2.667 32,0 L 20,-12 c -2.667,-2.667 -5.333,-2.667 -8,0 z" /></g><g
           transform="translate(980.7998,595.2002)"
           id="g876"><path
             id="path878"
             style="fill:#000000;fill-opacity:1;fill-rule:nonzero;stroke:none"
             d="M 0,0 C -3.2,3.2 -3.2,6.399 0,9.6 L 14.4,24 c 3.201,3.2 6.4,3.2 9.6,0 L 38.4,9.6 C 41.601,6.399 41.601,3.2 38.4,0 L 24,-14.4 c -3.2,-3.201 -6.399,-3.201 -9.6,0 z" /></g><g
           transform="translate(977.5996,494.4004)"
           id="g880"><path
             id="path882"
             style="fill:#000000;fill-opacity:1;fill-rule:nonzero;stroke:none"
             d="M 0,0 C -3.733,3.733 -3.733,7.466 0,11.199 L 16.801,28 c 3.733,3.733 7.466,3.733 11.199,0 L 44.801,11.199 C 48.533,7.466 48.533,3.733 44.801,0 L 28,-16.801 c -3.733,-3.733 -7.466,-3.733 -11.199,0 z" /></g><g
           transform="translate(974.4004,393.5996)"
           id="g884"><path
             id="path886"
             style="fill:#000000;fill-opacity:1;fill-rule:nonzero;stroke:none"
             d="M 0,0 C -4.267,4.267 -4.267,8.534 0,12.801 L 19.199,32 c 4.267,4.267 8.534,4.267 12.801,0 L 51.199,12.801 C 55.467,8.534 55.467,4.267 51.199,0 L 32,-19.199 c -4.267,-4.267 -8.534,-4.267 -12.801,0 z" /></g><g
           transform="translate(971.2002,292.7998)"
           id="g888"><path
             id="path890"
             style="fill:#000000;fill-opacity:1;fill-rule:nonzero;stroke:none"
             d="M 0,0 C -4.8,4.8 -4.8,9.601 0,14.4 L 21.6,36 c 4.799,4.8 9.6,4.8 14.4,0 L 57.6,14.4 C 62.399,9.601 62.399,4.8 57.6,0 L 36,-21.6 c -4.8,-4.799 -9.601,-4.799 -14.4,0 z" /></g><g
           transform="translate(968,192)"
           id="g892"><path
             id="path894"
             style="fill:#000000;fill-opacity:1;fill-rule:nonzero;stroke:none"
             d="m 0,0 c -5.333,5.333 -5.333,10.667 0,16 l 24,24 c 5.333,5.333 10.667,5.333 16,0 L 64,16 C 69.333,10.667 69.333,5.333 64,0 L 40,-24 c -5.333,-5.333 -10.667,-5.333 -16,0 z" /></g><g
           transform="translate(964.7998,91.2002)"
           id="g896"><path
             id="path898"
             style="fill:#000000;fill-opacity:1;fill-rule:nonzero;stroke:none"
             d="M 0,0 C -5.866,5.866 -5.866,11.733 0,17.6 L 26.4,44 c 5.867,5.866 11.734,5.866 17.6,0 L 70.4,17.6 C 76.267,11.733 76.267,5.866 70.4,0 L 44,-26.4 c -5.866,-5.867 -11.733,-5.867 -17.6,0 z" /></g><g
           transform="translate(961.5996,-9.5996)"
           id="g900"><path
             id="path902"
             style="fill:#000000;fill-opacity:1;fill-rule:nonzero;stroke:none"
             d="M 0,0 C -6.399,6.399 -6.399,12.8 0,19.199 L 28.801,48 C 35.2,54.399 41.601,54.399 48,48 L 76.801,19.199 C 83.2,12.8 83.2,6.399 76.801,0 L 48,-28.801 c -6.399,-6.399 -12.8,-6.399 -19.199,0 z" /></g></g></g></g></svg>